<svg xmlns="http://www.w3.org/2000/svg" xmlns:xlink="http://www.w3.org/1999/xlink" width="300" zoomAndPan="magnify" viewBox="0 0 224.87999 225" height="300" preserveAspectRatio="xMidYMid meet" version="1.0"><defs><g/></defs><g fill="#ffd600" fill-opacity="1"><g transform="translate(-4.04784, 158.373702)"><g><path d="M 17.929688 0.585938 C 20.199219 0.585938 22.175781 -0.21875 23.859375 -1.757812 C 25.542969 -3.292969 26.347656 -5.269531 26.347656 -7.613281 L 26.347656 -58.257812 C 26.347656 -72.605469 33.007812 -79.996094 44.71875 -79.996094 C 50.355469 -79.996094 55.183594 -77.875 58.40625 -73.996094 C 61.625 -70.1875 63.382812 -64.699219 63.382812 -58.039062 L 63.382812 -7.613281 C 63.382812 -5.269531 64.1875 -3.292969 65.871094 -1.757812 C 67.40625 -0.21875 69.382812 0.585938 71.726562 0.585938 C 74.066406 0.585938 76.042969 -0.21875 77.726562 -1.757812 C 79.335938 -3.367188 80.140625 -5.34375 80.140625 -7.613281 L 80.140625 -58.113281 C 80.140625 -69.457031 76.777344 -79.117188 70.628906 -85.925781 C 64.40625 -92.730469 55.332031 -96.683594 44.28125 -96.683594 C 33.449219 -96.683594 24.738281 -92.730469 18.664062 -85.925781 C 12.734375 -79.191406 9.515625 -69.894531 9.515625 -59.429688 L 9.515625 -7.613281 C 9.515625 -5.269531 10.320312 -3.292969 12.003906 -1.757812 C 13.6875 -0.21875 15.664062 0.585938 17.929688 0.585938 Z M 17.929688 0.585938 "/></g></g></g><g fill="#ffd600" fill-opacity="1"><g transform="translate(73.86956, 158.376404)"><g><path d="M 17.863281 0.660156 C 22.546875 0.660156 25.988281 -2.636719 25.988281 -7.320312 L 25.988281 -36.746094 L 51.753906 -36.746094 C 54.023438 -36.746094 56 -37.480469 57.535156 -38.945312 C 59.074219 -40.40625 59.878906 -42.238281 59.878906 -44.507812 C 59.878906 -46.777344 59.074219 -48.679688 57.535156 -50.21875 C 56 -51.753906 54.023438 -52.558594 51.753906 -52.558594 L 25.988281 -52.558594 L 25.988281 -80.375 L 62.734375 -80.375 C 64.929688 -80.375 66.832031 -81.179688 68.445312 -82.792969 C 69.980469 -84.402344 70.714844 -86.304688 70.714844 -88.574219 C 70.714844 -90.699219 69.835938 -92.820312 68.445312 -94.285156 C 66.832031 -95.894531 64.929688 -96.699219 62.734375 -96.699219 L 17.863281 -96.699219 C 15.152344 -96.699219 13.03125 -95.820312 11.640625 -94.066406 C 10.46875 -92.601562 9.808594 -90.84375 9.734375 -88.867188 L 9.734375 -7.320312 C 9.734375 -5.050781 10.542969 -3.148438 12.078125 -1.683594 C 13.617188 -0.144531 15.59375 0.660156 17.863281 0.660156 Z M 17.863281 0.660156 "/></g></g></g><g fill="#ffd600" fill-opacity="1"><g transform="translate(140.077126, 158.376404)"><g><path d="M 43.921875 0.804688 C 54.828125 0.804688 63.980469 -3 70.199219 -9.957031 C 76.351562 -16.761719 79.71875 -26.351562 79.71875 -37.699219 L 79.71875 -88.28125 C 79.71875 -90.550781 78.914062 -92.527344 77.300781 -94.136719 C 75.617188 -95.675781 73.640625 -96.480469 71.371094 -96.480469 C 69.03125 -96.480469 67.054688 -95.675781 65.371094 -94.136719 C 63.6875 -92.601562 62.878906 -90.625 62.878906 -88.28125 L 62.878906 -37.84375 C 62.878906 -31.183594 61.125 -25.695312 57.902344 -21.886719 C 54.609375 -18.007812 49.925781 -15.886719 44.289062 -15.886719 C 32.574219 -15.886719 25.914062 -23.277344 25.914062 -37.554688 L 25.914062 -88.28125 C 25.914062 -90.625 25.109375 -92.601562 23.425781 -94.136719 C 21.742188 -95.675781 19.765625 -96.480469 17.496094 -96.480469 C 15.152344 -96.480469 13.175781 -95.675781 11.640625 -94.136719 C 9.957031 -92.601562 9.148438 -90.625 9.148438 -88.28125 L 9.148438 -36.453125 C 9.148438 -25.914062 12.296875 -16.691406 18.226562 -10.027344 C 24.304688 -3.074219 33.085938 0.804688 43.921875 0.804688 Z M 43.921875 0.804688 "/></g></g></g><g fill="#ffd600" fill-opacity="1"><g transform="translate(6.072356, 172.668055)"><g><path d="M 1.433594 0.046875 C 1.617188 0.046875 1.773438 -0.015625 1.910156 -0.140625 C 2.042969 -0.261719 2.109375 -0.421875 2.109375 -0.609375 L 2.109375 -4.660156 C 2.109375 -5.808594 2.640625 -6.402344 3.578125 -6.402344 C 4.027344 -6.402344 4.414062 -6.230469 4.671875 -5.921875 C 4.929688 -5.617188 5.070312 -5.175781 5.070312 -4.644531 L 5.070312 -0.609375 C 5.070312 -0.421875 5.136719 -0.261719 5.269531 -0.140625 C 5.394531 -0.015625 5.550781 0.046875 5.738281 0.046875 C 5.925781 0.046875 6.085938 -0.015625 6.21875 -0.140625 C 6.347656 -0.269531 6.414062 -0.425781 6.414062 -0.609375 L 6.414062 -4.648438 C 6.414062 -5.558594 6.144531 -6.332031 5.652344 -6.875 C 5.152344 -7.421875 4.425781 -7.734375 3.542969 -7.734375 C 2.675781 -7.734375 1.980469 -7.421875 1.492188 -6.875 C 1.019531 -6.335938 0.761719 -5.59375 0.761719 -4.753906 L 0.761719 -0.609375 C 0.761719 -0.421875 0.824219 -0.261719 0.960938 -0.140625 C 1.09375 -0.015625 1.253906 0.046875 1.433594 0.046875 Z M 1.433594 0.046875 "/></g></g></g><g fill="#ffd600" fill-opacity="1"><g transform="translate(18.019905, 172.668055)"><g><path d="M 3.601562 0.0625 C 4.378906 0.0625 5.113281 -0.234375 5.644531 -0.753906 C 6.183594 -1.277344 6.496094 -2.007812 6.496094 -2.835938 L 6.496094 -4.847656 C 6.496094 -5.675781 6.183594 -6.40625 5.644531 -6.929688 C 5.113281 -7.449219 4.378906 -7.746094 3.601562 -7.746094 C 2.824219 -7.746094 2.097656 -7.449219 1.5625 -6.929688 C 1.023438 -6.394531 0.707031 -5.675781 0.707031 -4.847656 L 0.707031 -2.835938 C 0.707031 -2.007812 1.023438 -1.289062 1.5625 -0.753906 C 2.097656 -0.234375 2.824219 0.0625 3.601562 0.0625 Z M 3.601562 -1.246094 C 3.175781 -1.246094 2.777344 -1.394531 2.488281 -1.667969 C 2.191406 -1.949219 2.019531 -2.34375 2.019531 -2.828125 L 2.019531 -4.855469 C 2.019531 -5.339844 2.191406 -5.738281 2.488281 -6.019531 C 2.777344 -6.285156 3.175781 -6.4375 3.601562 -6.4375 C 4.027344 -6.4375 4.425781 -6.285156 4.714844 -6.019531 C 5.011719 -5.738281 5.183594 -5.339844 5.183594 -4.855469 L 5.183594 -2.828125 C 5.183594 -2.34375 5.011719 -1.949219 4.714844 -1.667969 C 4.425781 -1.394531 4.027344 -1.246094 3.601562 -1.246094 Z M 3.601562 -1.246094 "/></g></g></g><g fill="#ffd600" fill-opacity="1"><g transform="translate(30.002593, 172.668055)"><g><path d="M 1.433594 0.046875 C 1.617188 0.046875 1.773438 -0.015625 1.910156 -0.140625 C 2.042969 -0.261719 2.109375 -0.421875 2.109375 -0.609375 L 2.109375 -4.660156 C 2.109375 -5.808594 2.640625 -6.402344 3.578125 -6.402344 C 4.027344 -6.402344 4.414062 -6.230469 4.671875 -5.921875 C 4.929688 -5.617188 5.070312 -5.175781 5.070312 -4.644531 L 5.070312 -0.609375 C 5.070312 -0.421875 5.136719 -0.261719 5.269531 -0.140625 C 5.394531 -0.015625 5.550781 0.046875 5.738281 0.046875 C 5.925781 0.046875 6.085938 -0.015625 6.21875 -0.140625 C 6.347656 -0.269531 6.414062 -0.425781 6.414062 -0.609375 L 6.414062 -4.648438 C 6.414062 -5.558594 6.144531 -6.332031 5.652344 -6.875 C 5.152344 -7.421875 4.425781 -7.734375 3.542969 -7.734375 C 2.675781 -7.734375 1.980469 -7.421875 1.492188 -6.875 C 1.019531 -6.335938 0.761719 -5.59375 0.761719 -4.753906 L 0.761719 -0.609375 C 0.761719 -0.421875 0.824219 -0.261719 0.960938 -0.140625 C 1.09375 -0.015625 1.253906 0.046875 1.433594 0.046875 Z M 1.433594 0.046875 "/></g></g></g><g fill="#ffd600" fill-opacity="1"><g transform="translate(41.950141, 172.668055)"><g><path d="M 4.351562 -2.863281 C 4.53125 -2.863281 4.691406 -2.929688 4.824219 -3.058594 C 4.949219 -3.179688 5.011719 -3.332031 5.011719 -3.515625 C 5.011719 -3.695312 4.949219 -3.851562 4.824219 -3.988281 C 4.691406 -4.117188 4.53125 -4.179688 4.351562 -4.179688 L 1.058594 -4.179688 C 0.878906 -4.179688 0.71875 -4.117188 0.589844 -3.988281 C 0.460938 -3.851562 0.398438 -3.695312 0.398438 -3.515625 C 0.398438 -3.339844 0.460938 -3.1875 0.589844 -3.058594 C 0.71875 -2.929688 0.878906 -2.863281 1.058594 -2.863281 Z M 4.351562 -2.863281 "/></g></g></g><g fill="#ffd600" fill-opacity="1"><g transform="translate(52.181782, 172.668055)"><g><path d="M 1.429688 0.0507812 C 1.804688 0.0507812 2.078125 -0.210938 2.078125 -0.585938 L 2.078125 -2.941406 L 4.140625 -2.941406 C 4.320312 -2.941406 4.480469 -3 4.601562 -3.117188 C 4.726562 -3.234375 4.789062 -3.378906 4.789062 -3.5625 C 4.789062 -3.742188 4.726562 -3.894531 4.601562 -4.015625 C 4.480469 -4.140625 4.320312 -4.203125 4.140625 -4.203125 L 2.078125 -4.203125 L 2.078125 -6.429688 L 5.019531 -6.429688 C 5.195312 -6.429688 5.347656 -6.496094 5.476562 -6.625 C 5.597656 -6.753906 5.65625 -6.90625 5.65625 -7.085938 C 5.65625 -7.257812 5.585938 -7.425781 5.476562 -7.542969 C 5.347656 -7.671875 5.195312 -7.734375 5.019531 -7.734375 L 1.429688 -7.734375 C 1.210938 -7.734375 1.042969 -7.664062 0.929688 -7.527344 C 0.835938 -7.410156 0.785156 -7.269531 0.777344 -7.109375 L 0.777344 -0.585938 C 0.777344 -0.402344 0.84375 -0.25 0.964844 -0.132812 C 1.089844 -0.0117188 1.246094 0.0507812 1.429688 0.0507812 Z M 1.429688 0.0507812 "/></g></g></g><g fill="#ffd600" fill-opacity="1"><g transform="translate(62.694528, 172.668055)"><g><path d="M 3.515625 0.0625 C 4.386719 0.0625 5.117188 -0.238281 5.617188 -0.796875 C 6.109375 -1.339844 6.378906 -2.109375 6.378906 -3.015625 L 6.378906 -7.0625 C 6.378906 -7.246094 6.3125 -7.402344 6.183594 -7.53125 C 6.050781 -7.652344 5.890625 -7.71875 5.710938 -7.71875 C 5.523438 -7.71875 5.363281 -7.652344 5.230469 -7.53125 C 5.09375 -7.410156 5.03125 -7.25 5.03125 -7.0625 L 5.03125 -3.027344 C 5.03125 -2.496094 4.890625 -2.054688 4.632812 -1.75 C 4.367188 -1.441406 3.992188 -1.269531 3.542969 -1.269531 C 2.605469 -1.269531 2.074219 -1.863281 2.074219 -3.003906 L 2.074219 -7.0625 C 2.074219 -7.25 2.007812 -7.410156 1.875 -7.53125 C 1.738281 -7.652344 1.582031 -7.71875 1.398438 -7.71875 C 1.210938 -7.71875 1.054688 -7.652344 0.929688 -7.53125 C 0.796875 -7.410156 0.730469 -7.25 0.730469 -7.0625 L 0.730469 -2.917969 C 0.730469 -2.074219 0.984375 -1.335938 1.457031 -0.800781 C 1.945312 -0.246094 2.648438 0.0625 3.515625 0.0625 Z M 3.515625 0.0625 "/></g></g></g><g fill="#ffd600" fill-opacity="1"><g transform="translate(74.577655, 172.668055)"><g><path d="M 1.433594 0.046875 C 1.617188 0.046875 1.773438 -0.015625 1.910156 -0.140625 C 2.042969 -0.261719 2.109375 -0.421875 2.109375 -0.609375 L 2.109375 -4.660156 C 2.109375 -5.808594 2.640625 -6.402344 3.578125 -6.402344 C 4.027344 -6.402344 4.414062 -6.230469 4.671875 -5.921875 C 4.929688 -5.617188 5.070312 -5.175781 5.070312 -4.644531 L 5.070312 -0.609375 C 5.070312 -0.421875 5.136719 -0.261719 5.269531 -0.140625 C 5.394531 -0.015625 5.550781 0.046875 5.738281 0.046875 C 5.925781 0.046875 6.085938 -0.015625 6.21875 -0.140625 C 6.347656 -0.269531 6.414062 -0.425781 6.414062 -0.609375 L 6.414062 -4.648438 C 6.414062 -5.558594 6.144531 -6.332031 5.652344 -6.875 C 5.152344 -7.421875 4.425781 -7.734375 3.542969 -7.734375 C 2.675781 -7.734375 1.980469 -7.421875 1.492188 -6.875 C 1.019531 -6.335938 0.761719 -5.59375 0.761719 -4.753906 L 0.761719 -0.609375 C 0.761719 -0.421875 0.824219 -0.261719 0.960938 -0.140625 C 1.09375 -0.015625 1.253906 0.046875 1.433594 0.046875 Z M 1.433594 0.046875 "/></g></g></g><g fill="#ffd600" fill-opacity="1"><g transform="translate(86.525205, 172.668055)"><g><path d="M 3.5625 0.0625 C 4.144531 0.0625 4.695312 -0.105469 5.160156 -0.414062 C 5.621094 -0.71875 5.980469 -1.164062 6.242188 -1.746094 C 6.273438 -1.808594 6.289062 -1.886719 6.300781 -1.980469 C 6.3125 -2.074219 6.320312 -2.160156 6.320312 -2.25 L 6.320312 -3.636719 C 6.320312 -3.800781 6.242188 -3.96875 6.125 -4.085938 C 5.992188 -4.210938 5.839844 -4.273438 5.664062 -4.273438 L 4.457031 -4.285156 C 4.273438 -4.285156 4.128906 -4.222656 4.003906 -4.09375 C 3.882812 -3.957031 3.816406 -3.804688 3.816406 -3.636719 C 3.816406 -3.457031 3.882812 -3.296875 4.003906 -3.175781 C 4.128906 -3.046875 4.273438 -2.980469 4.457031 -2.980469 L 5.113281 -2.980469 L 5.113281 -2.167969 C 4.929688 -1.878906 4.765625 -1.664062 4.539062 -1.515625 C 4.273438 -1.335938 3.953125 -1.246094 3.5625 -1.246094 C 3.132812 -1.246094 2.746094 -1.398438 2.472656 -1.679688 C 2.191406 -1.96875 2.027344 -2.371094 2.027344 -2.859375 L 2.027344 -4.824219 C 2.027344 -5.300781 2.183594 -5.714844 2.464844 -6.003906 C 2.730469 -6.285156 3.117188 -6.4375 3.542969 -6.4375 C 3.933594 -6.4375 4.246094 -6.359375 4.46875 -6.203125 C 4.671875 -6.0625 4.8125 -5.875 4.996094 -5.574219 C 5.089844 -5.417969 5.257812 -5.339844 5.453125 -5.339844 C 5.640625 -5.339844 5.816406 -5.417969 5.933594 -5.535156 C 6.054688 -5.65625 6.121094 -5.808594 6.121094 -5.980469 C 6.121094 -6.136719 6.078125 -6.277344 5.992188 -6.402344 C 5.714844 -6.816406 5.40625 -7.128906 5.066406 -7.34375 C 4.625 -7.613281 4.121094 -7.746094 3.542969 -7.746094 C 2.753906 -7.746094 2.050781 -7.449219 1.535156 -6.917969 C 1.019531 -6.382812 0.71875 -5.640625 0.71875 -4.8125 L 0.71875 -2.871094 C 0.71875 -2.042969 1.023438 -1.300781 1.546875 -0.765625 C 2.0625 -0.234375 2.769531 0.0625 3.5625 0.0625 Z M 3.5625 0.0625 "/></g></g></g><g fill="#ffd600" fill-opacity="1"><g transform="translate(98.238501, 172.668055)"><g><path d="M 1.429688 0.0507812 C 1.609375 0.0507812 1.769531 -0.0117188 1.890625 -0.132812 C 2.015625 -0.25 2.078125 -0.402344 2.078125 -0.585938 L 2.078125 -7.097656 C 2.078125 -7.472656 1.804688 -7.734375 1.429688 -7.734375 C 1.253906 -7.734375 1.101562 -7.675781 0.972656 -7.554688 C 0.84375 -7.425781 0.777344 -7.273438 0.777344 -7.097656 L 0.777344 -0.585938 C 0.777344 -0.402344 0.84375 -0.257812 0.972656 -0.132812 C 1.09375 -0.0117188 1.246094 0.0507812 1.429688 0.0507812 Z M 1.429688 0.0507812 "/></g></g></g><g fill="#ffd600" fill-opacity="1"><g transform="translate(105.869926, 172.668055)"><g><path d="M 4.191406 0 C 4.800781 0 5.375 -0.246094 5.796875 -0.667969 C 6.21875 -1.089844 6.472656 -1.667969 6.472656 -2.285156 C 6.472656 -2.933594 6.21875 -3.503906 5.769531 -3.929688 C 6.148438 -4.332031 6.367188 -4.847656 6.367188 -5.429688 C 6.367188 -6.039062 6.121094 -6.664062 5.722656 -7.070312 C 5.316406 -7.484375 4.75 -7.730469 4.15625 -7.730469 L 1.382812 -7.730469 C 1.199219 -7.730469 1.042969 -7.664062 0.917969 -7.542969 C 0.789062 -7.414062 0.726562 -7.261719 0.71875 -7.085938 L 0.71875 -0.667969 C 0.71875 -0.480469 0.796875 -0.308594 0.917969 -0.191406 C 1.046875 -0.0625 1.199219 0 1.382812 0 Z M 2.0625 -4.574219 L 2.0625 -6.390625 L 4.0625 -6.390625 C 4.328125 -6.390625 4.578125 -6.300781 4.75 -6.15625 C 4.917969 -6.007812 5.035156 -5.710938 5.035156 -5.429688 C 5.035156 -5.195312 4.953125 -4.996094 4.796875 -4.835938 C 4.636719 -4.679688 4.421875 -4.578125 4.191406 -4.574219 Z M 2.0625 -1.339844 L 2.0625 -3.238281 L 4.191406 -3.238281 C 4.433594 -3.238281 4.660156 -3.132812 4.832031 -2.953125 C 4.996094 -2.769531 5.09375 -2.535156 5.09375 -2.285156 C 5.09375 -2.03125 4.996094 -1.792969 4.832031 -1.621094 C 4.660156 -1.441406 4.433594 -1.339844 4.191406 -1.339844 Z M 2.0625 -1.339844 "/></g></g></g><g fill="#ffd600" fill-opacity="1"><g transform="translate(117.624217, 172.668055)"><g><path d="M 5.03125 0 C 5.40625 0 5.679688 -0.269531 5.679688 -0.644531 C 5.679688 -0.824219 5.617188 -0.976562 5.492188 -1.101562 C 5.371094 -1.222656 5.210938 -1.289062 5.03125 -1.289062 L 2.078125 -1.292969 L 2.078125 -7.09375 C 2.078125 -7.273438 2.015625 -7.425781 1.890625 -7.546875 C 1.769531 -7.671875 1.609375 -7.734375 1.429688 -7.734375 C 1.246094 -7.734375 1.09375 -7.671875 0.972656 -7.546875 C 0.84375 -7.421875 0.777344 -7.269531 0.777344 -7.09375 L 0.777344 -0.636719 C 0.777344 -0.46875 0.835938 -0.320312 0.960938 -0.191406 C 1.078125 -0.0742188 1.234375 0 1.398438 0 Z M 5.03125 0 "/></g></g></g><g fill="#ffd600" fill-opacity="1"><g transform="translate(128.500056, 172.668055)"><g><path d="M 5.03125 0 C 5.210938 0 5.363281 -0.0625 5.488281 -0.1875 C 5.609375 -0.304688 5.675781 -0.457031 5.675781 -0.644531 C 5.675781 -0.8125 5.605469 -0.984375 5.488281 -1.101562 C 5.359375 -1.230469 5.207031 -1.292969 5.03125 -1.292969 L 2.078125 -1.292969 L 2.078125 -3.304688 L 4.257812 -3.304688 C 4.445312 -3.304688 4.597656 -3.363281 4.71875 -3.484375 C 4.84375 -3.601562 4.90625 -3.75 4.90625 -3.929688 C 4.90625 -4.109375 4.84375 -4.261719 4.71875 -4.386719 C 4.597656 -4.507812 4.4375 -4.574219 4.257812 -4.574219 L 2.078125 -4.574219 L 2.078125 -6.429688 L 5.03125 -6.429688 C 5.207031 -6.429688 5.359375 -6.496094 5.488281 -6.625 C 5.609375 -6.746094 5.675781 -6.90625 5.675781 -7.085938 C 5.675781 -7.257812 5.605469 -7.425781 5.488281 -7.542969 C 5.359375 -7.671875 5.207031 -7.734375 5.03125 -7.734375 L 1.433594 -7.734375 C 1.246094 -7.734375 1.089844 -7.671875 0.964844 -7.546875 C 0.84375 -7.425781 0.777344 -7.269531 0.777344 -7.085938 L 0.777344 -0.644531 C 0.777344 -0.292969 1.03125 -0.0273438 1.382812 0 Z M 5.03125 0 "/></g></g></g><g fill="#ffd600" fill-opacity="1"><g transform="translate(139.200198, 172.668055)"><g/></g></g><g fill="#ffd600" fill-opacity="1"><g transform="translate(146.673502, 172.668055)"><g><path d="M 3.515625 0.0625 C 4.386719 0.0625 5.117188 -0.238281 5.617188 -0.796875 C 6.109375 -1.339844 6.378906 -2.109375 6.378906 -3.015625 L 6.378906 -7.0625 C 6.378906 -7.246094 6.3125 -7.402344 6.183594 -7.53125 C 6.050781 -7.652344 5.890625 -7.71875 5.710938 -7.71875 C 5.523438 -7.71875 5.363281 -7.652344 5.230469 -7.53125 C 5.09375 -7.410156 5.03125 -7.25 5.03125 -7.0625 L 5.03125 -3.027344 C 5.03125 -2.496094 4.890625 -2.054688 4.632812 -1.75 C 4.367188 -1.441406 3.992188 -1.269531 3.542969 -1.269531 C 2.605469 -1.269531 2.074219 -1.863281 2.074219 -3.003906 L 2.074219 -7.0625 C 2.074219 -7.25 2.007812 -7.410156 1.875 -7.53125 C 1.738281 -7.652344 1.582031 -7.71875 1.398438 -7.71875 C 1.210938 -7.71875 1.054688 -7.652344 0.929688 -7.53125 C 0.796875 -7.410156 0.730469 -7.25 0.730469 -7.0625 L 0.730469 -2.917969 C 0.730469 -2.074219 0.984375 -1.335938 1.457031 -0.800781 C 1.945312 -0.246094 2.648438 0.0625 3.515625 0.0625 Z M 3.515625 0.0625 "/></g></g></g><g fill="#ffd600" fill-opacity="1"><g transform="translate(158.556632, 172.668055)"><g><path d="M 1.429688 0 C 1.609375 0 1.769531 -0.0625 1.890625 -0.1875 C 2.015625 -0.304688 2.078125 -0.457031 2.078125 -0.636719 L 2.078125 -3.09375 L 5.210938 -0.191406 C 5.328125 -0.0625 5.480469 0 5.664062 0 C 5.84375 0 6.003906 -0.0703125 6.132812 -0.203125 C 6.25 -0.320312 6.324219 -0.496094 6.324219 -0.660156 C 6.324219 -0.835938 6.261719 -0.988281 6.136719 -1.113281 L 3.035156 -3.988281 L 5.96875 -6.605469 C 6.101562 -6.742188 6.167969 -6.894531 6.167969 -7.074219 C 6.167969 -7.257812 6.085938 -7.425781 5.960938 -7.546875 C 5.839844 -7.664062 5.667969 -7.734375 5.503906 -7.734375 C 5.347656 -7.734375 5.199219 -7.675781 5.066406 -7.554688 L 2.078125 -4.871094 L 2.078125 -7.097656 C 2.078125 -7.28125 2.015625 -7.433594 1.890625 -7.554688 C 1.761719 -7.675781 1.609375 -7.734375 1.429688 -7.734375 C 1.253906 -7.734375 1.101562 -7.675781 0.972656 -7.554688 C 0.84375 -7.425781 0.777344 -7.273438 0.777344 -7.097656 L 0.777344 -0.636719 C 0.777344 -0.457031 0.84375 -0.308594 0.972656 -0.1875 C 1.09375 -0.0625 1.246094 0 1.429688 0 Z M 1.429688 0 "/></g></g></g><g fill="#ffd600" fill-opacity="1"><g transform="translate(169.842415, 172.668055)"><g><path d="M 1.382812 0.0117188 C 1.550781 0.0117188 1.722656 -0.0585938 1.839844 -0.175781 C 1.96875 -0.304688 2.03125 -0.457031 2.03125 -0.632812 L 2.03125 -2.042969 L 3.050781 -2.042969 L 4.882812 -0.179688 C 4.996094 -0.0585938 5.148438 0.00390625 5.328125 0.00390625 C 5.492188 0.00390625 5.664062 -0.0703125 5.785156 -0.1875 C 5.921875 -0.320312 5.984375 -0.472656 5.984375 -0.644531 C 5.984375 -0.808594 5.921875 -0.972656 5.796875 -1.105469 L 4.667969 -2.261719 C 5.183594 -2.472656 5.617188 -2.824219 5.921875 -3.273438 C 6.230469 -3.726562 6.40625 -4.269531 6.40625 -4.847656 C 6.40625 -5.691406 6.101562 -6.382812 5.570312 -6.917969 C 5.035156 -7.433594 4.316406 -7.734375 3.539062 -7.734375 L 1.382812 -7.734375 C 1.199219 -7.734375 1.046875 -7.671875 0.917969 -7.542969 C 0.800781 -7.425781 0.730469 -7.257812 0.730469 -7.085938 L 0.730469 -0.632812 C 0.730469 -0.449219 0.796875 -0.296875 0.917969 -0.175781 C 1.042969 -0.0507812 1.199219 0.0117188 1.382812 0.0117188 Z M 2.03125 -3.351562 L 2.03125 -6.429688 L 3.5625 -6.429688 C 3.976562 -6.429688 4.363281 -6.261719 4.648438 -5.972656 C 4.929688 -5.691406 5.105469 -5.253906 5.105469 -4.847656 C 5.105469 -4.449219 4.941406 -4.074219 4.660156 -3.792969 C 4.375 -3.515625 3.980469 -3.351562 3.554688 -3.351562 Z M 2.03125 -3.351562 "/></g></g></g><g fill="#ffd600" fill-opacity="1"><g transform="translate(181.39759, 172.668055)"><g><path d="M 1.398438 0.046875 C 1.582031 0.046875 1.738281 -0.015625 1.875 -0.140625 C 2.007812 -0.261719 2.074219 -0.421875 2.074219 -0.609375 L 2.074219 -2.089844 L 5.03125 -2.089844 L 5.03125 -0.609375 C 5.03125 -0.421875 5.09375 -0.261719 5.230469 -0.140625 C 5.363281 -0.015625 5.523438 0.046875 5.710938 0.046875 C 5.890625 0.046875 6.050781 -0.015625 6.183594 -0.140625 C 6.3125 -0.269531 6.378906 -0.425781 6.378906 -0.609375 L 6.378906 -4.648438 C 6.378906 -5.558594 6.109375 -6.332031 5.617188 -6.875 C 5.117188 -7.421875 4.386719 -7.734375 3.515625 -7.734375 C 2.648438 -7.734375 1.945312 -7.421875 1.457031 -6.875 C 0.984375 -6.335938 0.730469 -5.597656 0.730469 -4.753906 L 0.730469 -0.609375 C 0.730469 -0.421875 0.796875 -0.261719 0.929688 -0.140625 C 1.054688 -0.015625 1.210938 0.046875 1.398438 0.046875 Z M 2.074219 -3.425781 L 2.074219 -4.660156 C 2.074219 -5.792969 2.613281 -6.402344 3.542969 -6.402344 C 3.992188 -6.402344 4.367188 -6.230469 4.632812 -5.921875 C 4.890625 -5.617188 5.03125 -5.175781 5.03125 -4.644531 L 5.03125 -3.425781 Z M 2.074219 -3.425781 "/></g></g></g><g fill="#ffd600" fill-opacity="1"><g transform="translate(193.28072, 172.668055)"><g><path d="M 1.429688 0.0507812 C 1.609375 0.0507812 1.769531 -0.0117188 1.890625 -0.132812 C 2.015625 -0.25 2.078125 -0.402344 2.078125 -0.585938 L 2.078125 -7.097656 C 2.078125 -7.472656 1.804688 -7.734375 1.429688 -7.734375 C 1.253906 -7.734375 1.101562 -7.675781 0.972656 -7.554688 C 0.84375 -7.425781 0.777344 -7.273438 0.777344 -7.097656 L 0.777344 -0.585938 C 0.777344 -0.402344 0.84375 -0.257812 0.972656 -0.132812 C 1.09375 -0.0117188 1.246094 0.0507812 1.429688 0.0507812 Z M 1.429688 0.0507812 "/></g></g></g><g fill="#ffd600" fill-opacity="1"><g transform="translate(200.912146, 172.668055)"><g><path d="M 1.433594 0.046875 C 1.617188 0.046875 1.773438 -0.015625 1.910156 -0.140625 C 2.042969 -0.261719 2.109375 -0.421875 2.109375 -0.609375 L 2.109375 -4.660156 C 2.109375 -5.808594 2.640625 -6.402344 3.578125 -6.402344 C 4.027344 -6.402344 4.414062 -6.230469 4.671875 -5.921875 C 4.929688 -5.617188 5.070312 -5.175781 5.070312 -4.644531 L 5.070312 -0.609375 C 5.070312 -0.421875 5.136719 -0.261719 5.269531 -0.140625 C 5.394531 -0.015625 5.550781 0.046875 5.738281 0.046875 C 5.925781 0.046875 6.085938 -0.015625 6.21875 -0.140625 C 6.347656 -0.269531 6.414062 -0.425781 6.414062 -0.609375 L 6.414062 -4.648438 C 6.414062 -5.558594 6.144531 -6.332031 5.652344 -6.875 C 5.152344 -7.421875 4.425781 -7.734375 3.542969 -7.734375 C 2.675781 -7.734375 1.980469 -7.421875 1.492188 -6.875 C 1.019531 -6.335938 0.761719 -5.59375 0.761719 -4.753906 L 0.761719 -0.609375 C 0.761719 -0.421875 0.824219 -0.261719 0.960938 -0.140625 C 1.09375 -0.015625 1.253906 0.046875 1.433594 0.046875 Z M 1.433594 0.046875 "/></g></g></g><g fill="#ffd600" fill-opacity="1"><g transform="translate(212.859696, 172.668055)"><g><path d="M 5.03125 0 C 5.210938 0 5.363281 -0.0625 5.488281 -0.1875 C 5.609375 -0.304688 5.675781 -0.457031 5.675781 -0.644531 C 5.675781 -0.8125 5.605469 -0.984375 5.488281 -1.101562 C 5.359375 -1.230469 5.207031 -1.292969 5.03125 -1.292969 L 2.078125 -1.292969 L 2.078125 -3.304688 L 4.257812 -3.304688 C 4.445312 -3.304688 4.597656 -3.363281 4.71875 -3.484375 C 4.84375 -3.601562 4.90625 -3.75 4.90625 -3.929688 C 4.90625 -4.109375 4.84375 -4.261719 4.71875 -4.386719 C 4.597656 -4.507812 4.4375 -4.574219 4.257812 -4.574219 L 2.078125 -4.574219 L 2.078125 -6.429688 L 5.03125 -6.429688 C 5.207031 -6.429688 5.359375 -6.496094 5.488281 -6.625 C 5.609375 -6.746094 5.675781 -6.90625 5.675781 -7.085938 C 5.675781 -7.257812 5.605469 -7.425781 5.488281 -7.542969 C 5.359375 -7.671875 5.207031 -7.734375 5.03125 -7.734375 L 1.433594 -7.734375 C 1.246094 -7.734375 1.089844 -7.671875 0.964844 -7.546875 C 0.84375 -7.425781 0.777344 -7.269531 0.777344 -7.085938 L 0.777344 -0.644531 C 0.777344 -0.292969 1.03125 -0.0273438 1.382812 0 Z M 5.03125 0 "/></g></g></g></svg>