<?xml version="1.0" encoding="UTF-8" standalone="no"?>
<!-- Generator: Adobe Illustrator 26.0.0, SVG Export Plug-In . SVG Version: 6.00 Build 0)  -->

<svg
   version="1.1"
   id="Слой_1"
   x="0px"
   y="0px"
   viewBox="0 0 341.71536 535.80878"
   xml:space="preserve"
   sodipodi:docname="flowers_corner.svg"
   inkscape:export-filename="flowers_corner.svg"
   inkscape:export-xdpi="75.800003"
   inkscape:export-ydpi="75.800003"
   inkscape:version="1.2.1 (9c6d41e410, 2022-07-14)"
   width="341.71536"
   height="535.80878"
   xmlns:inkscape="http://www.inkscape.org/namespaces/inkscape"
   xmlns:sodipodi="http://sodipodi.sourceforge.net/DTD/sodipodi-0.dtd"
   xmlns="http://www.w3.org/2000/svg"
   xmlns:svg="http://www.w3.org/2000/svg"><defs
   id="defs119" /><sodipodi:namedview
   id="namedview117"
   pagecolor="#ffffff"
   bordercolor="#000000"
   borderopacity="0.25"
   inkscape:showpageshadow="2"
   inkscape:pageopacity="0.0"
   inkscape:pagecheckerboard="0"
   inkscape:deskcolor="#d1d1d1"
   showgrid="false"
   inkscape:zoom="0.50925926"
   inkscape:cx="331.85454"
   inkscape:cy="335.78182"
   inkscape:window-width="1366"
   inkscape:window-height="705"
   inkscape:window-x="1912"
   inkscape:window-y="-8"
   inkscape:window-maximized="1"
   inkscape:current-layer="Слой_1" />
<style
   type="text/css"
   id="style2">
	.st0{fill:#FFD600;}
	.st1{fill:none;stroke:#FFD600;stroke-width:3;stroke-miterlimit:10;}
	.st2{fill:none;stroke:#FFD600;stroke-miterlimit:10;}
</style>
<g
   id="g114"
   style="image-rendering:auto"
   transform="translate(-217.32664,-204.4212)">
	<g
   id="g36">
		<g
   id="g32">
			<g
   id="g30">
				
					<rect
   x="514.22998"
   y="264.54001"
   transform="matrix(0.7143,-0.6999,0.6999,0.7143,-39.4389,438.3826)"
   class="st0"
   width="5.9099998"
   height="5.9099998"
   id="rect4" />
				
					<rect
   x="515.53998"
   y="238.94"
   transform="matrix(0.7143,-0.6999,0.6999,0.7143,-20.693,430.8967)"
   class="st0"
   width="3.7"
   height="3.7"
   id="rect6" />
				
					<rect
   x="541.06"
   y="238.11"
   transform="matrix(0.7143,-0.6999,0.6999,0.7143,-13.2756,449.6087)"
   class="st0"
   width="5.9099998"
   height="5.9099998"
   id="rect8" />
				
					<rect
   x="514.69"
   y="211.09"
   transform="matrix(0.7143,-0.6999,0.6999,0.7143,-1.9015,423.4289)"
   class="st0"
   width="5.9099998"
   height="5.9099998"
   id="rect10" />
				
					<rect
   x="487.66"
   y="237.56"
   transform="matrix(0.7143,-0.6999,0.6999,0.7143,-28.151,412.0823)"
   class="st0"
   width="5.9099998"
   height="5.9099998"
   id="rect12" />
				<polygon
   class="st0"
   points="544.1,227.98 533.05,239.53 520.56,239.42 532.87,227.7 "
   id="polygon14" />
				<polygon
   class="st0"
   points="490.71,227.44 501.52,239.21 514,239.35 501.94,227.38 "
   id="polygon16" />
				<polygon
   class="st0"
   points="520.69,242.03 531.79,253.68 544.02,253.75 533.56,242.35 "
   id="polygon18" />
				<polygon
   class="st0"
   points="513.99,241.96 502.66,253.38 490.43,253.2 501.12,242.02 "
   id="polygon20" />
				<polygon
   class="st0"
   points="518.63,244.3 529.88,255.81 529.77,267.47 518.44,256.44 "
   id="polygon22" />
				<polygon
   class="st0"
   points="518.7,237.23 530.19,225.96 530.38,214.29 518.76,225.09 "
   id="polygon24" />
				<polygon
   class="st0"
   points="515.92,237.2 504.66,225.7 504.72,214.03 516.1,225.06 "
   id="polygon26" />
				<polygon
   class="st0"
   points="515.84,244.27 504.36,255.55 504.15,267.26 515.62,256.91 "
   id="polygon28" />
			</g>
		</g>
		<polygon
   class="st1"
   points="497.68,205.93 537.67,206.34 557.31,241.18 536.96,275.6 496.97,275.2 477.33,240.36 "
   id="polygon34" />
	</g>
	<g
   id="g70">
		<g
   id="g66">
			<g
   id="g64">
				
					<rect
   x="286.92999"
   y="585.53998"
   transform="matrix(0.7143,-0.6999,0.6999,0.7143,-329.0392,371.0227)"
   class="st0"
   width="5.9099998"
   height="5.9099998"
   id="rect38" />
				
					<rect
   x="288.23999"
   y="559.95001"
   transform="matrix(0.7143,-0.6999,0.6999,0.7143,-310.2933,363.5367)"
   class="st0"
   width="3.7"
   height="3.7"
   id="rect40" />
				
					<rect
   x="313.76001"
   y="559.10999"
   transform="matrix(0.7143,-0.6999,0.6999,0.7143,-302.8759,382.2488)"
   class="st0"
   width="5.9099998"
   height="5.9099998"
   id="rect42" />
				
					<rect
   x="287.39001"
   y="532.09003"
   transform="matrix(0.7143,-0.6999,0.6999,0.7143,-291.5018,356.0689)"
   class="st0"
   width="5.9099998"
   height="5.9099998"
   id="rect44" />
				
					<rect
   x="260.37"
   y="558.57001"
   transform="matrix(0.7143,-0.6999,0.6999,0.7143,-317.7512,344.7224)"
   class="st0"
   width="5.9099998"
   height="5.9099998"
   id="rect46" />
				<polygon
   class="st0"
   points="316.8,548.99 305.75,560.54 293.26,560.42 305.57,548.71 "
   id="polygon48" />
				<polygon
   class="st0"
   points="263.41,548.45 274.22,560.22 286.71,560.36 274.64,548.39 "
   id="polygon50" />
				<polygon
   class="st0"
   points="293.39,563.03 304.49,574.69 316.72,574.76 306.26,563.35 "
   id="polygon52" />
				<polygon
   class="st0"
   points="286.69,562.96 275.36,574.39 263.13,574.21 273.82,563.02 "
   id="polygon54" />
				<polygon
   class="st0"
   points="291.33,565.31 302.59,576.81 302.48,588.48 291.15,577.45 "
   id="polygon56" />
				<polygon
   class="st0"
   points="291.41,558.24 302.89,546.96 303.08,535.29 291.47,546.1 "
   id="polygon58" />
				<polygon
   class="st0"
   points="288.62,558.21 277.37,546.7 277.42,535.04 288.81,546.07 "
   id="polygon60" />
				<polygon
   class="st0"
   points="288.55,565.28 277.06,576.55 276.85,588.26 288.33,577.91 "
   id="polygon62" />
			</g>
		</g>
		<polygon
   class="st1"
   points="270.38,526.94 310.37,527.34 330.01,562.18 309.66,596.61 269.67,596.2 250.03,561.36 "
   id="polygon68" />
	</g>
	<g
   id="g104">
		<g
   id="g100">
			<g
   id="g98">
				
					<rect
   x="338.73999"
   y="319.62"
   transform="matrix(0.8536,-0.5209,0.5209,0.8536,-118.7338,226.499)"
   class="st0"
   width="9.7399998"
   height="9.7399998"
   id="rect72" />
				
					<rect
   x="330.09"
   y="364.20999"
   transform="matrix(0.8536,-0.5209,0.5209,0.8536,-142.5441,227.3079)"
   class="st0"
   width="6.1100001"
   height="6.1100001"
   id="rect74" />
				
					<rect
   x="370.95001"
   y="372.72"
   transform="matrix(0.8536,-0.5209,0.5209,0.8536,-141.6772,251.0491)"
   class="st0"
   width="9.7399998"
   height="9.7399998"
   id="rect76" />
				
					<rect
   x="317.85999"
   y="405.25"
   transform="matrix(0.8536,-0.5209,0.5209,0.8536,-166.3952,228.158)"
   class="st0"
   width="9.7399998"
   height="9.7399998"
   id="rect78" />
				
					<rect
   x="285.37"
   y="352.01001"
   transform="matrix(0.8536,-0.5209,0.5209,0.8536,-143.4157,203.4368)"
   class="st0"
   width="9.7399998"
   height="9.7399998"
   id="rect80" />
				<polygon
   class="st0"
   points="370.66,398.53 357.66,375.6 337.66,370.74 352.6,394.45 "
   id="polygon82" />
				<polygon
   class="st0"
   points="285.09,377.82 307.13,363.37 327.15,368.2 303.02,382.45 "
   id="polygon84" />
				<polygon
   class="st0"
   points="338.92,366.62 361.37,352.48 380.95,357.31 359.62,371.31 "
   id="polygon86" />
				<polygon
   class="st0"
   points="328.18,364.02 314.69,341.18 295.07,336.53 307.63,358.73 "
   id="polygon88" />
				<polygon
   class="st0"
   points="336.55,362.15 359.19,348.31 363.73,329.62 341.16,342.67 "
   id="polygon90" />
				<polygon
   class="st0"
   points="333.81,373.49 347.61,396.15 343.2,414.88 328.99,392.92 "
   id="polygon92" />
				<polygon
   class="st0"
   points="329.34,372.41 306.7,386.25 302.07,404.92 324.73,391.89 "
   id="polygon94" />
				<polygon
   class="st0"
   points="332.08,361.07 318.28,338.41 322.68,319.6 336.84,340.79 "
   id="polygon96" />
			</g>
		</g>
		<polygon
   class="st1"
   points="287.54,415.02 351.63,430.53 397.11,382.78 378.5,319.52 314.41,304.01 268.93,351.76 "
   id="polygon102" />
	</g>
	<polygon
   class="st1"
   points="448.07,295.55 421.4,323.56 383.81,314.46 372.9,277.36 399.57,249.36 437.15,258.46 "
   id="polygon106" />
	<polygon
   class="st1"
   points="294.18,457.12 267.51,485.12 229.92,476.03 219.01,438.93 245.68,410.93 283.26,420.03 "
   id="polygon108" />
	<line
   class="st2"
   x1="269.67001"
   y1="596.20001"
   x2="269.67001"
   y2="720.52002"
   id="line110" />
	<circle
   class="st0"
   cx="269.67001"
   cy="730.16998"
   r="10.06"
   id="circle112" />
</g>
</svg>
