<?xml version="1.0" encoding="utf-8"?>
<!-- Generator: Adobe Illustrator 26.0.0, SVG Export Plug-In . SVG Version: 6.00 Build 0)  -->
<svg version="1.1" id="Слой_1" xmlns="http://www.w3.org/2000/svg" xmlns:xlink="http://www.w3.org/1999/xlink" x="0px" y="0px"
	 viewBox="0 0 1920 1080" style="enable-background:new 0 0 1920 1080;" xml:space="preserve">
<style type="text/css">
	.st0{fill:#FFD600;}
	.st1{fill:none;stroke:#FFD600;stroke-width:3;stroke-miterlimit:10;}
	.st2{fill:none;stroke:#FFD600;stroke-miterlimit:10;}
</style>
<g>
	<g>
		<g>
			<g>
				
					<rect x="514.23" y="264.54" transform="matrix(0.7143 -0.6999 0.6999 0.7143 -39.4389 438.3826)" class="st0" width="5.91" height="5.91"/>
				
					<rect x="515.54" y="238.94" transform="matrix(0.7143 -0.6999 0.6999 0.7143 -20.693 430.8967)" class="st0" width="3.7" height="3.7"/>
				
					<rect x="541.06" y="238.11" transform="matrix(0.7143 -0.6999 0.6999 0.7143 -13.2756 449.6087)" class="st0" width="5.91" height="5.91"/>
				
					<rect x="514.69" y="211.09" transform="matrix(0.7143 -0.6999 0.6999 0.7143 -1.9015 423.4289)" class="st0" width="5.91" height="5.91"/>
				
					<rect x="487.66" y="237.56" transform="matrix(0.7143 -0.6999 0.6999 0.7143 -28.151 412.0823)" class="st0" width="5.91" height="5.91"/>
				<polygon class="st0" points="520.56,239.42 532.87,227.7 544.1,227.98 533.05,239.53 				"/>
				<polygon class="st0" points="514,239.35 501.94,227.38 490.71,227.44 501.52,239.21 				"/>
				<polygon class="st0" points="544.02,253.75 533.56,242.35 520.69,242.03 531.79,253.68 				"/>
				<polygon class="st0" points="490.43,253.2 501.12,242.02 513.99,241.96 502.66,253.38 				"/>
				<polygon class="st0" points="529.77,267.47 518.44,256.44 518.63,244.3 529.88,255.81 				"/>
				<polygon class="st0" points="530.38,214.29 518.76,225.09 518.7,237.23 530.19,225.96 				"/>
				<polygon class="st0" points="504.72,214.03 516.1,225.06 515.92,237.2 504.66,225.7 				"/>
				<polygon class="st0" points="504.15,267.26 515.62,256.91 515.84,244.27 504.36,255.55 				"/>
			</g>
		</g>
		<polygon class="st1" points="496.97,275.2 477.33,240.36 497.68,205.93 537.67,206.34 557.31,241.18 536.96,275.6 		"/>
	</g>
	<g>
		<g>
			<g>
				
					<rect x="286.93" y="585.54" transform="matrix(0.7143 -0.6999 0.6999 0.7143 -329.0392 371.0227)" class="st0" width="5.91" height="5.91"/>
				
					<rect x="288.24" y="559.95" transform="matrix(0.7143 -0.6999 0.6999 0.7143 -310.2933 363.5367)" class="st0" width="3.7" height="3.7"/>
				
					<rect x="313.76" y="559.11" transform="matrix(0.7143 -0.6999 0.6999 0.7143 -302.8759 382.2488)" class="st0" width="5.91" height="5.91"/>
				
					<rect x="287.39" y="532.09" transform="matrix(0.7143 -0.6999 0.6999 0.7143 -291.5018 356.0689)" class="st0" width="5.91" height="5.91"/>
				
					<rect x="260.37" y="558.57" transform="matrix(0.7143 -0.6999 0.6999 0.7143 -317.7512 344.7224)" class="st0" width="5.91" height="5.91"/>
				<polygon class="st0" points="293.26,560.42 305.57,548.71 316.8,548.99 305.75,560.54 				"/>
				<polygon class="st0" points="286.71,560.36 274.64,548.39 263.41,548.45 274.22,560.22 				"/>
				<polygon class="st0" points="316.72,574.76 306.26,563.35 293.39,563.03 304.49,574.69 				"/>
				<polygon class="st0" points="263.13,574.21 273.82,563.02 286.69,562.96 275.36,574.39 				"/>
				<polygon class="st0" points="302.48,588.48 291.15,577.45 291.33,565.31 302.59,576.81 				"/>
				<polygon class="st0" points="303.08,535.29 291.47,546.1 291.41,558.24 302.89,546.96 				"/>
				<polygon class="st0" points="277.42,535.04 288.81,546.07 288.62,558.21 277.37,546.7 				"/>
				<polygon class="st0" points="276.85,588.26 288.33,577.91 288.55,565.28 277.06,576.55 				"/>
			</g>
		</g>
		<polygon class="st1" points="269.67,596.2 250.03,561.36 270.38,526.94 310.37,527.34 330.01,562.18 309.66,596.61 		"/>
	</g>
	<g>
		<g>
			<g>
				
					<rect x="338.74" y="319.62" transform="matrix(0.8536 -0.5209 0.5209 0.8536 -118.7338 226.499)" class="st0" width="9.74" height="9.74"/>
				
					<rect x="330.09" y="364.21" transform="matrix(0.8536 -0.5209 0.5209 0.8536 -142.5441 227.3079)" class="st0" width="6.11" height="6.11"/>
				
					<rect x="370.95" y="372.72" transform="matrix(0.8536 -0.5209 0.5209 0.8536 -141.6772 251.0491)" class="st0" width="9.74" height="9.74"/>
				
					<rect x="317.86" y="405.25" transform="matrix(0.8536 -0.5209 0.5209 0.8536 -166.3952 228.158)" class="st0" width="9.74" height="9.74"/>
				
					<rect x="285.37" y="352.01" transform="matrix(0.8536 -0.5209 0.5209 0.8536 -143.4157 203.4368)" class="st0" width="9.74" height="9.74"/>
				<polygon class="st0" points="337.66,370.74 352.6,394.45 370.66,398.53 357.66,375.6 				"/>
				<polygon class="st0" points="327.15,368.2 303.02,382.45 285.09,377.82 307.13,363.37 				"/>
				<polygon class="st0" points="380.95,357.31 359.62,371.31 338.92,366.62 361.37,352.48 				"/>
				<polygon class="st0" points="295.07,336.53 307.63,358.73 328.18,364.02 314.69,341.18 				"/>
				<polygon class="st0" points="363.73,329.62 341.16,342.67 336.55,362.15 359.19,348.31 				"/>
				<polygon class="st0" points="343.2,414.88 328.99,392.92 333.81,373.49 347.61,396.15 				"/>
				<polygon class="st0" points="302.07,404.92 324.73,391.89 329.34,372.41 306.7,386.25 				"/>
				<polygon class="st0" points="322.68,319.6 336.84,340.79 332.08,361.07 318.28,338.41 				"/>
			</g>
		</g>
		<polygon class="st1" points="314.41,304.01 268.93,351.76 287.54,415.02 351.63,430.53 397.11,382.78 378.5,319.52 		"/>
	</g>
	<polygon class="st1" points="399.57,249.36 437.15,258.46 448.07,295.55 421.4,323.56 383.81,314.46 372.9,277.36 	"/>
	<polygon class="st1" points="245.68,410.93 283.26,420.03 294.18,457.12 267.51,485.12 229.92,476.03 219.01,438.93 	"/>
	<line class="st2" x1="269.67" y1="596.2" x2="269.67" y2="720.52"/>
	<circle class="st0" cx="269.67" cy="730.17" r="10.06"/>
</g>
<g>
	<g>
		<polygon class="st0" points="871.93,358.09 877.82,352.49 883.89,357.93 877.99,363.54 		"/>
		<polygon class="st0" points="912.4,357.47 916.09,353.96 919.9,357.37 916.2,360.88 		"/>
		<polygon class="st0" points="910.71,392.72 916.61,387.11 922.67,392.56 916.78,398.17 		"/>
		<polygon class="st0" points="948.47,356.96 954.37,351.36 960.44,356.81 954.54,362.41 		"/>
		<polygon class="st0" points="909.62,322.09 915.52,316.48 921.58,321.93 915.69,327.54 		"/>
		<polygon class="st0" points="918.23,361.57 935.43,377.47 935.42,392.32 918.5,378.09 		"/>
		<polygon class="st0" points="918.09,352.9 934.8,336.55 934.33,321.7 917.86,336.38 		"/>
		<polygon class="st0" points="898.53,393.05 914.48,378.85 914.49,361.83 898.2,376.88 		"/>
		<polygon class="st0" points="897.43,322.17 913.82,335.94 914.36,352.96 897.6,338.35 		"/>
		<polygon class="st0" points="878.38,374.66 893.78,359.32 911.16,359.18 895.09,374.43 		"/>
		<polygon class="st0" points="954.55,373.74 938.68,358.73 921.29,359.04 937.84,373.87 		"/>
		<polygon class="st0" points="954.02,339.8 938.62,355.21 921.24,355.36 937.31,340.1 		"/>
		<polygon class="st0" points="877.79,340.77 893.01,355.61 911.11,355.49 894.57,340.67 		"/>
	</g>
</g>
</svg>
