<svg xmlns="http://www.w3.org/2000/svg" xmlns:xlink="http://www.w3.org/1999/xlink" width="300" zoomAndPan="magnify" viewBox="0 0 224.87999 225" height="300" preserveAspectRatio="xMidYMid meet" version="1.0"><defs><g/></defs><g fill="#000000" fill-opacity="1"><g transform="translate(3.030727, 163.645101)"><g><path d="M 99.859375 0 L 66.484375 0 L 32.09375 -66.359375 L 31.5 -66.359375 C 32.320312 -55.921875 32.734375 -47.953125 32.734375 -42.453125 L 32.734375 0 L 10.1875 0 L 10.1875 -94.203125 L 43.421875 -94.203125 L 77.703125 -28.734375 L 78.09375 -28.734375 C 77.488281 -38.222656 77.1875 -45.847656 77.1875 -51.609375 L 77.1875 -94.203125 L 99.859375 -94.203125 Z M 99.859375 0 "/></g></g></g><g fill="#000000" fill-opacity="1"><g transform="translate(71.424348, 163.645101)"><g><path d="M 35.25 0 L 10.1875 0 L 10.1875 -94.203125 L 65.84375 -94.203125 L 65.84375 -73.765625 L 35.25 -73.765625 L 35.25 -55.796875 L 63.46875 -55.796875 L 63.46875 -35.375 L 35.25 -35.375 Z M 35.25 0 "/></g></g></g><g fill="#000000" fill-opacity="1"><g transform="translate(123.353259, 163.645101)"><g><path d="M 90.265625 -94.203125 L 90.265625 -37.5 C 90.265625 -25.164062 86.773438 -15.617188 79.796875 -8.859375 C 72.816406 -2.097656 62.753906 1.28125 49.609375 1.28125 C 36.765625 1.28125 26.894531 -2 20 -8.5625 C 13.113281 -15.132812 9.671875 -24.585938 9.671875 -36.921875 L 9.671875 -94.203125 L 35.25 -94.203125 L 35.25 -38.921875 C 35.25 -32.253906 36.492188 -27.414062 38.984375 -24.40625 C 41.472656 -21.40625 45.144531 -19.90625 50 -19.90625 C 55.195312 -19.90625 58.960938 -21.394531 61.296875 -24.375 C 63.640625 -27.363281 64.8125 -32.253906 64.8125 -39.046875 L 64.8125 -94.203125 Z M 90.265625 -94.203125 "/></g></g></g></svg>