<svg xmlns="http://www.w3.org/2000/svg" xmlns:xlink="http://www.w3.org/1999/xlink" width="500" zoomAndPan="magnify" viewBox="0 0 375 374.999991" height="500" preserveAspectRatio="xMidYMid meet" version="1.0"><defs><g/></defs><g fill="#ffd600" fill-opacity="1"><g transform="translate(-7.664228, 263.996939)"><g><path d="M 29.902344 0.976562 C 33.683594 0.976562 36.980469 -0.367188 39.789062 -2.929688 C 42.59375 -5.492188 43.9375 -8.789062 43.9375 -12.691406 L 43.9375 -97.148438 C 43.9375 -121.070312 55.042969 -133.398438 74.570312 -133.398438 C 83.96875 -133.398438 92.023438 -129.859375 97.394531 -123.390625 C 102.761719 -117.042969 105.691406 -107.890625 105.691406 -96.785156 L 105.691406 -12.691406 C 105.691406 -8.789062 107.035156 -5.492188 109.84375 -2.929688 C 112.40625 -0.367188 115.699219 0.976562 119.605469 0.976562 C 123.511719 0.976562 126.808594 -0.367188 129.613281 -2.929688 C 132.300781 -5.613281 133.640625 -8.910156 133.640625 -12.691406 L 133.640625 -96.90625 C 133.640625 -115.824219 128.027344 -131.933594 117.777344 -143.285156 C 107.402344 -154.632812 92.269531 -161.222656 73.839844 -161.222656 C 55.777344 -161.222656 41.25 -154.632812 31.121094 -143.285156 C 21.234375 -132.054688 15.867188 -116.554688 15.867188 -99.101562 L 15.867188 -12.691406 C 15.867188 -8.789062 17.207031 -5.492188 20.015625 -2.929688 C 22.824219 -0.367188 26.117188 0.976562 29.902344 0.976562 Z M 29.902344 0.976562 "/></g></g></g><g fill="#ffd600" fill-opacity="1"><g transform="translate(123.335987, 264.00144)"><g><path d="M 29.785156 1.097656 C 37.597656 1.097656 43.335938 -4.394531 43.335938 -12.207031 L 43.335938 -61.277344 L 86.304688 -61.277344 C 90.085938 -61.277344 93.382812 -62.5 95.945312 -64.941406 C 98.507812 -67.382812 99.851562 -70.433594 99.851562 -74.21875 C 99.851562 -78.003906 98.507812 -81.175781 95.945312 -83.738281 C 93.382812 -86.304688 90.085938 -87.644531 86.304688 -87.644531 L 43.335938 -87.644531 L 43.335938 -134.03125 L 104.613281 -134.03125 C 108.273438 -134.03125 111.449219 -135.375 114.132812 -138.058594 C 116.699219 -140.746094 117.917969 -143.917969 117.917969 -147.703125 C 117.917969 -151.242188 116.453125 -154.785156 114.132812 -157.226562 C 111.449219 -159.910156 108.273438 -161.253906 104.613281 -161.253906 L 29.785156 -161.253906 C 25.269531 -161.253906 21.726562 -159.789062 19.410156 -156.859375 C 17.457031 -154.417969 16.355469 -151.488281 16.234375 -148.191406 L 16.234375 -12.207031 C 16.234375 -8.421875 17.578125 -5.25 20.140625 -2.808594 C 22.703125 -0.242188 26 1.097656 29.785156 1.097656 Z M 29.785156 1.097656 "/></g></g></g><g fill="#ffd600" fill-opacity="1"><g transform="translate(234.341912, 264.00144)"><g><path d="M 73.242188 1.34375 C 91.429688 1.34375 106.6875 -5.003906 117.0625 -16.601562 C 127.316406 -27.953125 132.933594 -43.945312 132.933594 -62.867188 L 132.933594 -147.214844 C 132.933594 -151 131.589844 -154.296875 128.90625 -156.980469 C 126.097656 -159.542969 122.800781 -160.886719 119.015625 -160.886719 C 115.109375 -160.886719 111.816406 -159.542969 109.007812 -156.980469 C 106.199219 -154.417969 104.855469 -151.121094 104.855469 -147.214844 L 104.855469 -63.109375 C 104.855469 -52 101.925781 -42.847656 96.558594 -36.5 C 91.0625 -30.027344 83.25 -26.488281 73.851562 -26.488281 C 54.320312 -26.488281 43.210938 -38.816406 43.210938 -62.621094 L 43.210938 -147.214844 C 43.210938 -151.121094 41.871094 -154.417969 39.0625 -156.980469 C 36.253906 -159.542969 32.957031 -160.886719 29.175781 -160.886719 C 25.269531 -160.886719 21.972656 -159.542969 19.410156 -156.980469 C 16.601562 -154.417969 15.257812 -151.121094 15.257812 -147.214844 L 15.257812 -60.789062 C 15.257812 -43.210938 20.507812 -27.832031 30.394531 -16.722656 C 40.527344 -5.125 55.175781 1.34375 73.242188 1.34375 Z M 73.242188 1.34375 "/></g></g></g><g fill="#ffd600" fill-opacity="1"><g transform="translate(9.323786, 284.523322)"><g><path d="M 1.914062 0.0625 C 2.15625 0.0625 2.367188 -0.0234375 2.546875 -0.1875 C 2.726562 -0.351562 2.8125 -0.5625 2.8125 -0.8125 L 2.8125 -6.21875 C 2.8125 -7.75 3.523438 -8.539062 4.773438 -8.539062 C 5.375 -8.539062 5.890625 -8.3125 6.234375 -7.898438 C 6.578125 -7.492188 6.765625 -6.90625 6.765625 -6.195312 L 6.765625 -0.8125 C 6.765625 -0.5625 6.851562 -0.351562 7.03125 -0.1875 C 7.195312 -0.0234375 7.40625 0.0625 7.65625 0.0625 C 7.90625 0.0625 8.117188 -0.0234375 8.296875 -0.1875 C 8.46875 -0.359375 8.554688 -0.570312 8.554688 -0.8125 L 8.554688 -6.203125 C 8.554688 -7.414062 8.195312 -8.445312 7.539062 -9.171875 C 6.875 -9.898438 5.90625 -10.320312 4.726562 -10.320312 C 3.570312 -10.320312 2.640625 -9.898438 1.992188 -9.171875 C 1.359375 -8.453125 1.015625 -7.460938 1.015625 -6.34375 L 1.015625 -0.8125 C 1.015625 -0.5625 1.101562 -0.351562 1.28125 -0.1875 C 1.460938 -0.0234375 1.671875 0.0625 1.914062 0.0625 Z M 1.914062 0.0625 "/></g></g></g><g fill="#ffd600" fill-opacity="1"><g transform="translate(29.083703, 284.523322)"><g><path d="M 4.804688 0.0859375 C 5.84375 0.0859375 6.820312 -0.3125 7.53125 -1.007812 C 8.25 -1.703125 8.664062 -2.679688 8.664062 -3.78125 L 8.664062 -6.46875 C 8.664062 -7.570312 8.25 -8.546875 7.53125 -9.242188 C 6.820312 -9.9375 5.84375 -10.335938 4.804688 -10.335938 C 3.765625 -10.335938 2.796875 -9.9375 2.085938 -9.242188 C 1.367188 -8.53125 0.945312 -7.570312 0.945312 -6.46875 L 0.945312 -3.78125 C 0.945312 -2.679688 1.367188 -1.71875 2.085938 -1.007812 C 2.796875 -0.3125 3.765625 0.0859375 4.804688 0.0859375 Z M 4.804688 -1.664062 C 4.234375 -1.664062 3.703125 -1.859375 3.320312 -2.226562 C 2.921875 -2.601562 2.695312 -3.125 2.695312 -3.773438 L 2.695312 -6.476562 C 2.695312 -7.125 2.921875 -7.65625 3.320312 -8.03125 C 3.703125 -8.382812 4.234375 -8.585938 4.804688 -8.585938 C 5.375 -8.585938 5.90625 -8.382812 6.289062 -8.03125 C 6.6875 -7.65625 6.914062 -7.125 6.914062 -6.476562 L 6.914062 -3.773438 C 6.914062 -3.125 6.6875 -2.601562 6.289062 -2.226562 C 5.90625 -1.859375 5.375 -1.664062 4.804688 -1.664062 Z M 4.804688 -1.664062 "/></g></g></g><g fill="#ffd600" fill-opacity="1"><g transform="translate(48.890483, 284.523322)"><g><path d="M 1.914062 0.0625 C 2.15625 0.0625 2.367188 -0.0234375 2.546875 -0.1875 C 2.726562 -0.351562 2.8125 -0.5625 2.8125 -0.8125 L 2.8125 -6.21875 C 2.8125 -7.75 3.523438 -8.539062 4.773438 -8.539062 C 5.375 -8.539062 5.890625 -8.3125 6.234375 -7.898438 C 6.578125 -7.492188 6.765625 -6.90625 6.765625 -6.195312 L 6.765625 -0.8125 C 6.765625 -0.5625 6.851562 -0.351562 7.03125 -0.1875 C 7.195312 -0.0234375 7.40625 0.0625 7.65625 0.0625 C 7.90625 0.0625 8.117188 -0.0234375 8.296875 -0.1875 C 8.46875 -0.359375 8.554688 -0.570312 8.554688 -0.8125 L 8.554688 -6.203125 C 8.554688 -7.414062 8.195312 -8.445312 7.539062 -9.171875 C 6.875 -9.898438 5.90625 -10.320312 4.726562 -10.320312 C 3.570312 -10.320312 2.640625 -9.898438 1.992188 -9.171875 C 1.359375 -8.453125 1.015625 -7.460938 1.015625 -6.34375 L 1.015625 -0.8125 C 1.015625 -0.5625 1.101562 -0.351562 1.28125 -0.1875 C 1.460938 -0.0234375 1.671875 0.0625 1.914062 0.0625 Z M 1.914062 0.0625 "/></g></g></g><g fill="#ffd600" fill-opacity="1"><g transform="translate(68.6504, 284.523322)"><g><path d="M 5.804688 -3.820312 C 6.046875 -3.820312 6.257812 -3.90625 6.4375 -4.078125 C 6.601562 -4.242188 6.6875 -4.445312 6.6875 -4.6875 C 6.6875 -4.929688 6.601562 -5.140625 6.4375 -5.320312 C 6.257812 -5.492188 6.046875 -5.578125 5.804688 -5.578125 L 1.414062 -5.578125 C 1.171875 -5.578125 0.960938 -5.492188 0.789062 -5.320312 C 0.617188 -5.140625 0.53125 -4.929688 0.53125 -4.6875 C 0.53125 -4.453125 0.617188 -4.25 0.789062 -4.078125 C 0.960938 -3.90625 1.171875 -3.820312 1.414062 -3.820312 Z M 5.804688 -3.820312 "/></g></g></g><g fill="#ffd600" fill-opacity="1"><g transform="translate(86.121808, 284.523322)"><g><path d="M 1.90625 0.0703125 C 2.40625 0.0703125 2.773438 -0.28125 2.773438 -0.78125 L 2.773438 -3.921875 L 5.523438 -3.921875 C 5.765625 -3.921875 5.976562 -4 6.140625 -4.15625 C 6.304688 -4.3125 6.390625 -4.507812 6.390625 -4.75 C 6.390625 -4.992188 6.304688 -5.195312 6.140625 -5.359375 C 5.976562 -5.523438 5.765625 -5.609375 5.523438 -5.609375 L 2.773438 -5.609375 L 2.773438 -8.578125 L 6.695312 -8.578125 C 6.929688 -8.578125 7.132812 -8.664062 7.304688 -8.835938 C 7.46875 -9.007812 7.546875 -9.210938 7.546875 -9.453125 C 7.546875 -9.679688 7.453125 -9.90625 7.304688 -10.0625 C 7.132812 -10.234375 6.929688 -10.320312 6.695312 -10.320312 L 1.90625 -10.320312 C 1.617188 -10.320312 1.390625 -10.226562 1.242188 -10.039062 C 1.117188 -9.882812 1.046875 -9.695312 1.039062 -9.484375 L 1.039062 -0.78125 C 1.039062 -0.539062 1.125 -0.335938 1.289062 -0.179688 C 1.453125 -0.015625 1.664062 0.0703125 1.90625 0.0703125 Z M 1.90625 0.0703125 "/></g></g></g><g fill="#ffd600" fill-opacity="1"><g transform="translate(103.968124, 284.523322)"><g><path d="M 4.6875 0.0859375 C 5.851562 0.0859375 6.828125 -0.320312 7.492188 -1.0625 C 8.148438 -1.789062 8.507812 -2.8125 8.507812 -4.023438 L 8.507812 -9.421875 C 8.507812 -9.664062 8.421875 -9.875 8.25 -10.046875 C 8.070312 -10.210938 7.859375 -10.296875 7.617188 -10.296875 C 7.367188 -10.296875 7.15625 -10.210938 6.976562 -10.046875 C 6.796875 -9.882812 6.710938 -9.671875 6.710938 -9.421875 L 6.710938 -4.039062 C 6.710938 -3.328125 6.523438 -2.742188 6.179688 -2.335938 C 5.828125 -1.921875 5.328125 -1.695312 4.726562 -1.695312 C 3.476562 -1.695312 2.765625 -2.484375 2.765625 -4.007812 L 2.765625 -9.421875 C 2.765625 -9.671875 2.679688 -9.882812 2.5 -10.046875 C 2.320312 -10.210938 2.109375 -10.296875 1.867188 -10.296875 C 1.617188 -10.296875 1.40625 -10.210938 1.242188 -10.046875 C 1.0625 -9.882812 0.976562 -9.671875 0.976562 -9.421875 L 0.976562 -3.890625 C 0.976562 -2.765625 1.3125 -1.78125 1.945312 -1.070312 C 2.59375 -0.328125 3.53125 0.0859375 4.6875 0.0859375 Z M 4.6875 0.0859375 "/></g></g></g><g fill="#ffd600" fill-opacity="1"><g transform="translate(123.642119, 284.523322)"><g><path d="M 1.914062 0.0625 C 2.15625 0.0625 2.367188 -0.0234375 2.546875 -0.1875 C 2.726562 -0.351562 2.8125 -0.5625 2.8125 -0.8125 L 2.8125 -6.21875 C 2.8125 -7.75 3.523438 -8.539062 4.773438 -8.539062 C 5.375 -8.539062 5.890625 -8.3125 6.234375 -7.898438 C 6.578125 -7.492188 6.765625 -6.90625 6.765625 -6.195312 L 6.765625 -0.8125 C 6.765625 -0.5625 6.851562 -0.351562 7.03125 -0.1875 C 7.195312 -0.0234375 7.40625 0.0625 7.65625 0.0625 C 7.90625 0.0625 8.117188 -0.0234375 8.296875 -0.1875 C 8.46875 -0.359375 8.554688 -0.570312 8.554688 -0.8125 L 8.554688 -6.203125 C 8.554688 -7.414062 8.195312 -8.445312 7.539062 -9.171875 C 6.875 -9.898438 5.90625 -10.320312 4.726562 -10.320312 C 3.570312 -10.320312 2.640625 -9.898438 1.992188 -9.171875 C 1.359375 -8.453125 1.015625 -7.460938 1.015625 -6.34375 L 1.015625 -0.8125 C 1.015625 -0.5625 1.101562 -0.351562 1.28125 -0.1875 C 1.460938 -0.0234375 1.671875 0.0625 1.914062 0.0625 Z M 1.914062 0.0625 "/></g></g></g><g fill="#ffd600" fill-opacity="1"><g transform="translate(143.402037, 284.523322)"><g><path d="M 4.75 0.0859375 C 5.53125 0.0859375 6.265625 -0.140625 6.882812 -0.554688 C 7.5 -0.960938 7.976562 -1.554688 8.328125 -2.328125 C 8.367188 -2.414062 8.390625 -2.515625 8.40625 -2.640625 C 8.421875 -2.765625 8.429688 -2.882812 8.429688 -3 L 8.429688 -4.851562 C 8.429688 -5.070312 8.328125 -5.296875 8.171875 -5.453125 C 7.992188 -5.617188 7.789062 -5.703125 7.554688 -5.703125 L 5.945312 -5.71875 C 5.703125 -5.71875 5.507812 -5.632812 5.34375 -5.460938 C 5.179688 -5.28125 5.09375 -5.078125 5.09375 -4.851562 C 5.09375 -4.609375 5.179688 -4.398438 5.34375 -4.234375 C 5.507812 -4.0625 5.703125 -3.976562 5.945312 -3.976562 L 6.820312 -3.976562 L 6.820312 -2.890625 C 6.578125 -2.507812 6.359375 -2.21875 6.054688 -2.023438 C 5.703125 -1.78125 5.273438 -1.664062 4.75 -1.664062 C 4.179688 -1.664062 3.664062 -1.867188 3.296875 -2.242188 C 2.921875 -2.625 2.703125 -3.164062 2.703125 -3.8125 L 2.703125 -6.4375 C 2.703125 -7.070312 2.914062 -7.625 3.289062 -8.007812 C 3.640625 -8.382812 4.15625 -8.585938 4.726562 -8.585938 C 5.25 -8.585938 5.664062 -8.484375 5.960938 -8.273438 C 6.234375 -8.085938 6.421875 -7.835938 6.664062 -7.4375 C 6.789062 -7.226562 7.015625 -7.125 7.273438 -7.125 C 7.523438 -7.125 7.757812 -7.226562 7.914062 -7.382812 C 8.078125 -7.546875 8.164062 -7.75 8.164062 -7.976562 C 8.164062 -8.1875 8.109375 -8.375 7.992188 -8.539062 C 7.625 -9.09375 7.210938 -9.507812 6.757812 -9.796875 C 6.171875 -10.15625 5.5 -10.335938 4.726562 -10.335938 C 3.671875 -10.335938 2.734375 -9.9375 2.046875 -9.226562 C 1.359375 -8.515625 0.960938 -7.523438 0.960938 -6.421875 L 0.960938 -3.828125 C 0.960938 -2.726562 1.367188 -1.734375 2.0625 -1.023438 C 2.75 -0.3125 3.695312 0.0859375 4.75 0.0859375 Z M 4.75 0.0859375 "/></g></g></g><g fill="#ffd600" fill-opacity="1"><g transform="translate(162.84953, 284.523322)"><g><path d="M 1.90625 0.0703125 C 2.148438 0.0703125 2.359375 -0.015625 2.523438 -0.179688 C 2.6875 -0.335938 2.773438 -0.539062 2.773438 -0.78125 L 2.773438 -9.46875 C 2.773438 -9.96875 2.40625 -10.320312 1.90625 -10.320312 C 1.671875 -10.320312 1.46875 -10.242188 1.296875 -10.078125 C 1.125 -9.90625 1.039062 -9.703125 1.039062 -9.46875 L 1.039062 -0.78125 C 1.039062 -0.539062 1.125 -0.34375 1.296875 -0.179688 C 1.460938 -0.015625 1.664062 0.0703125 1.90625 0.0703125 Z M 1.90625 0.0703125 "/></g></g></g><g fill="#ffd600" fill-opacity="1"><g transform="translate(176.853035, 284.523322)"><g><path d="M 5.59375 0 C 6.40625 0 7.171875 -0.328125 7.734375 -0.890625 C 8.296875 -1.453125 8.632812 -2.226562 8.632812 -3.046875 C 8.632812 -3.914062 8.296875 -4.671875 7.695312 -5.242188 C 8.203125 -5.78125 8.492188 -6.46875 8.492188 -7.242188 C 8.492188 -8.054688 8.164062 -8.890625 7.632812 -9.429688 C 7.09375 -9.984375 6.335938 -10.3125 5.546875 -10.3125 L 1.84375 -10.3125 C 1.601562 -10.3125 1.390625 -10.226562 1.226562 -10.0625 C 1.054688 -9.890625 0.96875 -9.6875 0.960938 -9.453125 L 0.960938 -0.890625 C 0.960938 -0.640625 1.0625 -0.414062 1.226562 -0.257812 C 1.398438 -0.0859375 1.601562 0 1.84375 0 Z M 2.75 -6.101562 L 2.75 -8.523438 L 5.421875 -8.523438 C 5.773438 -8.523438 6.109375 -8.40625 6.335938 -8.210938 C 6.5625 -8.015625 6.71875 -7.617188 6.71875 -7.242188 C 6.71875 -6.929688 6.609375 -6.664062 6.398438 -6.453125 C 6.1875 -6.242188 5.898438 -6.109375 5.59375 -6.101562 Z M 2.75 -1.789062 L 2.75 -4.320312 L 5.59375 -4.320312 C 5.914062 -4.320312 6.21875 -4.179688 6.445312 -3.9375 C 6.664062 -3.695312 6.796875 -3.382812 6.796875 -3.046875 C 6.796875 -2.710938 6.664062 -2.390625 6.445312 -2.164062 C 6.21875 -1.921875 5.914062 -1.789062 5.59375 -1.789062 Z M 2.75 -1.789062 "/></g></g></g><g fill="#ffd600" fill-opacity="1"><g transform="translate(196.355197, 284.523322)"><g><path d="M 6.710938 0 C 7.210938 0 7.578125 -0.359375 7.578125 -0.859375 C 7.578125 -1.101562 7.492188 -1.304688 7.328125 -1.46875 C 7.164062 -1.632812 6.953125 -1.71875 6.710938 -1.71875 L 2.773438 -1.726562 L 2.773438 -9.460938 C 2.773438 -9.703125 2.6875 -9.90625 2.523438 -10.070312 C 2.359375 -10.234375 2.148438 -10.320312 1.90625 -10.320312 C 1.664062 -10.320312 1.460938 -10.234375 1.296875 -10.070312 C 1.125 -9.898438 1.039062 -9.695312 1.039062 -9.460938 L 1.039062 -0.851562 C 1.039062 -0.625 1.117188 -0.429688 1.28125 -0.257812 C 1.4375 -0.101562 1.648438 0 1.867188 0 Z M 6.710938 0 "/></g></g></g><g fill="#ffd600" fill-opacity="1"><g transform="translate(214.685758, 284.523322)"><g><path d="M 6.710938 0 C 6.953125 0 7.15625 -0.0859375 7.320312 -0.25 C 7.484375 -0.40625 7.570312 -0.609375 7.570312 -0.859375 C 7.570312 -1.085938 7.476562 -1.3125 7.320312 -1.46875 C 7.148438 -1.640625 6.945312 -1.726562 6.710938 -1.726562 L 2.773438 -1.726562 L 2.773438 -4.40625 L 5.679688 -4.40625 C 5.929688 -4.40625 6.132812 -4.484375 6.296875 -4.648438 C 6.460938 -4.804688 6.546875 -5 6.546875 -5.242188 C 6.546875 -5.484375 6.460938 -5.6875 6.296875 -5.851562 C 6.132812 -6.015625 5.921875 -6.101562 5.679688 -6.101562 L 2.773438 -6.101562 L 2.773438 -8.578125 L 6.710938 -8.578125 C 6.945312 -8.578125 7.148438 -8.664062 7.320312 -8.835938 C 7.484375 -9 7.570312 -9.210938 7.570312 -9.453125 C 7.570312 -9.679688 7.476562 -9.90625 7.320312 -10.0625 C 7.148438 -10.234375 6.945312 -10.320312 6.710938 -10.320312 L 1.914062 -10.320312 C 1.664062 -10.320312 1.453125 -10.234375 1.289062 -10.070312 C 1.125 -9.90625 1.039062 -9.695312 1.039062 -9.453125 L 1.039062 -0.859375 C 1.039062 -0.390625 1.375 -0.0390625 1.84375 0 Z M 6.710938 0 "/></g></g></g><g fill="#ffd600" fill-opacity="1"><g transform="translate(232.782024, 284.523322)"><g/></g></g><g fill="#ffd600" fill-opacity="1"><g transform="translate(246.574649, 284.523322)"><g><path d="M 4.6875 0.0859375 C 5.851562 0.0859375 6.828125 -0.320312 7.492188 -1.0625 C 8.148438 -1.789062 8.507812 -2.8125 8.507812 -4.023438 L 8.507812 -9.421875 C 8.507812 -9.664062 8.421875 -9.875 8.25 -10.046875 C 8.070312 -10.210938 7.859375 -10.296875 7.617188 -10.296875 C 7.367188 -10.296875 7.15625 -10.210938 6.976562 -10.046875 C 6.796875 -9.882812 6.710938 -9.671875 6.710938 -9.421875 L 6.710938 -4.039062 C 6.710938 -3.328125 6.523438 -2.742188 6.179688 -2.335938 C 5.828125 -1.921875 5.328125 -1.695312 4.726562 -1.695312 C 3.476562 -1.695312 2.765625 -2.484375 2.765625 -4.007812 L 2.765625 -9.421875 C 2.765625 -9.671875 2.679688 -9.882812 2.5 -10.046875 C 2.320312 -10.210938 2.109375 -10.296875 1.867188 -10.296875 C 1.617188 -10.296875 1.40625 -10.210938 1.242188 -10.046875 C 1.0625 -9.882812 0.976562 -9.671875 0.976562 -9.421875 L 0.976562 -3.890625 C 0.976562 -2.765625 1.3125 -1.78125 1.945312 -1.070312 C 2.59375 -0.328125 3.53125 0.0859375 4.6875 0.0859375 Z M 4.6875 0.0859375 "/></g></g></g><g fill="#ffd600" fill-opacity="1"><g transform="translate(266.248644, 284.523322)"><g><path d="M 1.90625 0 C 2.148438 0 2.359375 -0.0859375 2.523438 -0.25 C 2.6875 -0.40625 2.773438 -0.609375 2.773438 -0.851562 L 2.773438 -4.125 L 6.953125 -0.257812 C 7.109375 -0.0859375 7.3125 0 7.554688 0 C 7.796875 0 8.007812 -0.09375 8.179688 -0.273438 C 8.335938 -0.429688 8.4375 -0.664062 8.4375 -0.882812 C 8.4375 -1.117188 8.351562 -1.320312 8.1875 -1.484375 L 4.046875 -5.320312 L 7.960938 -8.8125 C 8.140625 -8.992188 8.226562 -9.195312 8.226562 -9.4375 C 8.226562 -9.679688 8.117188 -9.90625 7.953125 -10.070312 C 7.789062 -10.226562 7.5625 -10.320312 7.34375 -10.320312 C 7.132812 -10.320312 6.9375 -10.242188 6.757812 -10.078125 L 2.773438 -6.5 L 2.773438 -9.46875 C 2.773438 -9.710938 2.6875 -9.914062 2.523438 -10.078125 C 2.351562 -10.242188 2.148438 -10.320312 1.90625 -10.320312 C 1.671875 -10.320312 1.46875 -10.242188 1.296875 -10.078125 C 1.125 -9.90625 1.039062 -9.703125 1.039062 -9.46875 L 1.039062 -0.851562 C 1.039062 -0.609375 1.125 -0.414062 1.296875 -0.25 C 1.460938 -0.0859375 1.664062 0 1.90625 0 Z M 1.90625 0 "/></g></g></g><g fill="#ffd600" fill-opacity="1"><g transform="translate(285.125969, 284.523322)"><g><path d="M 1.84375 0.015625 C 2.070312 0.015625 2.296875 -0.078125 2.453125 -0.234375 C 2.625 -0.40625 2.710938 -0.609375 2.710938 -0.84375 L 2.710938 -2.726562 L 4.070312 -2.726562 L 6.515625 -0.242188 C 6.664062 -0.078125 6.867188 0.0078125 7.109375 0.0078125 C 7.328125 0.0078125 7.554688 -0.09375 7.71875 -0.25 C 7.898438 -0.429688 7.984375 -0.632812 7.984375 -0.859375 C 7.984375 -1.078125 7.898438 -1.296875 7.734375 -1.476562 L 6.226562 -3.015625 C 6.914062 -3.296875 7.492188 -3.765625 7.898438 -4.367188 C 8.3125 -4.96875 8.546875 -5.695312 8.546875 -6.46875 C 8.546875 -7.59375 8.140625 -8.515625 7.429688 -9.226562 C 6.71875 -9.914062 5.757812 -10.320312 4.71875 -10.320312 L 1.84375 -10.320312 C 1.601562 -10.320312 1.398438 -10.234375 1.226562 -10.0625 C 1.070312 -9.90625 0.976562 -9.679688 0.976562 -9.453125 L 0.976562 -0.84375 C 0.976562 -0.601562 1.0625 -0.398438 1.226562 -0.234375 C 1.390625 -0.0703125 1.601562 0.015625 1.84375 0.015625 Z M 2.710938 -4.46875 L 2.710938 -8.578125 L 4.75 -8.578125 C 5.304688 -8.578125 5.820312 -8.351562 6.203125 -7.96875 C 6.578125 -7.59375 6.8125 -7.007812 6.8125 -6.46875 C 6.8125 -5.9375 6.59375 -5.4375 6.21875 -5.0625 C 5.835938 -4.6875 5.3125 -4.46875 4.742188 -4.46875 Z M 2.710938 -4.46875 "/></g></g></g><g fill="#ffd600" fill-opacity="1"><g transform="translate(304.362571, 284.523322)"><g><path d="M 1.867188 0.0625 C 2.109375 0.0625 2.320312 -0.0234375 2.5 -0.1875 C 2.679688 -0.351562 2.765625 -0.5625 2.765625 -0.8125 L 2.765625 -2.789062 L 6.710938 -2.789062 L 6.710938 -0.8125 C 6.710938 -0.5625 6.796875 -0.351562 6.976562 -0.1875 C 7.15625 -0.0234375 7.367188 0.0625 7.617188 0.0625 C 7.859375 0.0625 8.070312 -0.0234375 8.25 -0.1875 C 8.421875 -0.359375 8.507812 -0.570312 8.507812 -0.8125 L 8.507812 -6.203125 C 8.507812 -7.414062 8.148438 -8.445312 7.492188 -9.171875 C 6.828125 -9.898438 5.851562 -10.320312 4.6875 -10.320312 C 3.53125 -10.320312 2.59375 -9.898438 1.945312 -9.171875 C 1.3125 -8.453125 0.976562 -7.46875 0.976562 -6.34375 L 0.976562 -0.8125 C 0.976562 -0.5625 1.0625 -0.351562 1.242188 -0.1875 C 1.40625 -0.0234375 1.617188 0.0625 1.867188 0.0625 Z M 2.765625 -4.570312 L 2.765625 -6.21875 C 2.765625 -7.726562 3.484375 -8.539062 4.726562 -8.539062 C 5.328125 -8.539062 5.828125 -8.3125 6.179688 -7.898438 C 6.523438 -7.492188 6.710938 -6.90625 6.710938 -6.195312 L 6.710938 -4.570312 Z M 2.765625 -4.570312 "/></g></g></g><g fill="#ffd600" fill-opacity="1"><g transform="translate(324.036566, 284.523322)"><g><path d="M 1.90625 0.0703125 C 2.148438 0.0703125 2.359375 -0.015625 2.523438 -0.179688 C 2.6875 -0.335938 2.773438 -0.539062 2.773438 -0.78125 L 2.773438 -9.46875 C 2.773438 -9.96875 2.40625 -10.320312 1.90625 -10.320312 C 1.671875 -10.320312 1.46875 -10.242188 1.296875 -10.078125 C 1.125 -9.90625 1.039062 -9.703125 1.039062 -9.46875 L 1.039062 -0.78125 C 1.039062 -0.539062 1.125 -0.34375 1.296875 -0.179688 C 1.460938 -0.015625 1.664062 0.0703125 1.90625 0.0703125 Z M 1.90625 0.0703125 "/></g></g></g><g fill="#ffd600" fill-opacity="1"><g transform="translate(338.04006, 284.523322)"><g><path d="M 1.914062 0.0625 C 2.15625 0.0625 2.367188 -0.0234375 2.546875 -0.1875 C 2.726562 -0.351562 2.8125 -0.5625 2.8125 -0.8125 L 2.8125 -6.21875 C 2.8125 -7.75 3.523438 -8.539062 4.773438 -8.539062 C 5.375 -8.539062 5.890625 -8.3125 6.234375 -7.898438 C 6.578125 -7.492188 6.765625 -6.90625 6.765625 -6.195312 L 6.765625 -0.8125 C 6.765625 -0.5625 6.851562 -0.351562 7.03125 -0.1875 C 7.195312 -0.0234375 7.40625 0.0625 7.65625 0.0625 C 7.90625 0.0625 8.117188 -0.0234375 8.296875 -0.1875 C 8.46875 -0.359375 8.554688 -0.570312 8.554688 -0.8125 L 8.554688 -6.203125 C 8.554688 -7.414062 8.195312 -8.445312 7.539062 -9.171875 C 6.875 -9.898438 5.90625 -10.320312 4.726562 -10.320312 C 3.570312 -10.320312 2.640625 -9.898438 1.992188 -9.171875 C 1.359375 -8.453125 1.015625 -7.460938 1.015625 -6.34375 L 1.015625 -0.8125 C 1.015625 -0.5625 1.101562 -0.351562 1.28125 -0.1875 C 1.460938 -0.0234375 1.671875 0.0625 1.914062 0.0625 Z M 1.914062 0.0625 "/></g></g></g><g fill="#ffd600" fill-opacity="1"><g transform="translate(357.799977, 284.523322)"><g><path d="M 6.710938 0 C 6.953125 0 7.15625 -0.0859375 7.320312 -0.25 C 7.484375 -0.40625 7.570312 -0.609375 7.570312 -0.859375 C 7.570312 -1.085938 7.476562 -1.3125 7.320312 -1.46875 C 7.148438 -1.640625 6.945312 -1.726562 6.710938 -1.726562 L 2.773438 -1.726562 L 2.773438 -4.40625 L 5.679688 -4.40625 C 5.929688 -4.40625 6.132812 -4.484375 6.296875 -4.648438 C 6.460938 -4.804688 6.546875 -5 6.546875 -5.242188 C 6.546875 -5.484375 6.460938 -5.6875 6.296875 -5.851562 C 6.132812 -6.015625 5.921875 -6.101562 5.679688 -6.101562 L 2.773438 -6.101562 L 2.773438 -8.578125 L 6.710938 -8.578125 C 6.945312 -8.578125 7.148438 -8.664062 7.320312 -8.835938 C 7.484375 -9 7.570312 -9.210938 7.570312 -9.453125 C 7.570312 -9.679688 7.476562 -9.90625 7.320312 -10.0625 C 7.148438 -10.234375 6.945312 -10.320312 6.710938 -10.320312 L 1.914062 -10.320312 C 1.664062 -10.320312 1.453125 -10.234375 1.289062 -10.070312 C 1.125 -9.90625 1.039062 -9.695312 1.039062 -9.453125 L 1.039062 -0.859375 C 1.039062 -0.390625 1.375 -0.0390625 1.84375 0 Z M 6.710938 0 "/></g></g></g></svg>