<?xml version="1.0" encoding="UTF-8" standalone="no"?>
<svg
   width="285.77078"
   zoomAndPan="magnify"
   viewBox="0 0 214.21377 111.05338"
   height="148.07117"
   preserveAspectRatio="xMidYMid"
   version="1.0"
   id="svg3425"
   sodipodi:docname="NFU_yellow.svg"
   inkscape:export-filename="NFU logo 300x300\NFU_yellow.svg"
   inkscape:export-xdpi="96"
   inkscape:export-ydpi="96"
   inkscape:version="1.2.1 (9c6d41e410, 2022-07-14)"
   xmlns:inkscape="http://www.inkscape.org/namespaces/inkscape"
   xmlns:sodipodi="http://sodipodi.sourceforge.net/DTD/sodipodi-0.dtd"
   xmlns="http://www.w3.org/2000/svg"
   xmlns:svg="http://www.w3.org/2000/svg"
   xmlns:rdf="http://www.w3.org/1999/02/22-rdf-syntax-ns#"
   xmlns:cc="http://creativecommons.org/ns#"
   xmlns:dc="http://purl.org/dc/elements/1.1/">
  <title
     id="title4256">NFU_logo</title>
  <sodipodi:namedview
     id="namedview3427"
     pagecolor="#ffffff"
     bordercolor="#000000"
     borderopacity="0.25"
     inkscape:showpageshadow="2"
     inkscape:pageopacity="0.0"
     inkscape:pagecheckerboard="0"
     inkscape:deskcolor="#d1d1d1"
     showgrid="false"
     inkscape:zoom="1.8333333"
     inkscape:cx="142.36364"
     inkscape:cy="67.636364"
     inkscape:window-width="1366"
     inkscape:window-height="705"
     inkscape:window-x="1912"
     inkscape:window-y="-8"
     inkscape:window-maximized="1"
     inkscape:current-layer="svg3425" />
  <defs
     id="defs3241">
    <g
       id="g3239" />
  </defs>
  <g
     fill="#ffd600"
     fill-opacity="1"
     id="g3249"
     transform="translate(-5.52779,-61.677185)">
    <g
       transform="translate(-4.04784,158.3737)"
       id="g3247">
      <g
         id="g3245">
        <path
           d="m 17.929688,0.585938 c 2.269531,0 4.246093,-0.804688 5.929687,-2.34375 1.683594,-1.535157 2.488281,-3.511719 2.488281,-5.855469 v -50.644531 c 0,-14.347657 6.660156,-21.738282 18.371094,-21.738282 5.636719,0 10.464844,2.121094 13.6875,6 3.21875,3.808594 4.976562,9.296875 4.976562,15.957032 v 50.425781 c 0,2.34375 0.804688,4.320312 2.488282,5.855469 1.535156,1.539062 3.511718,2.34375 5.855468,2.34375 2.339844,0 4.316407,-0.804688 6,-2.34375 1.609376,-1.609376 2.414063,-3.585938 2.414063,-5.855469 v -50.5 c 0,-11.34375 -3.363281,-21.003907 -9.511719,-27.8125 -6.222656,-6.804688 -15.296875,-10.757813 -26.347656,-10.757813 -10.832031,0 -19.542969,3.953125 -25.617188,10.757813 -5.929687,6.734375 -9.148437,16.03125 -9.148437,26.496093 v 51.816407 c 0,2.34375 0.804687,4.320312 2.488281,5.855469 1.683594,1.539062 3.660156,2.34375 5.925782,2.34375 z m 0,0"
           id="path3243" />
      </g>
    </g>
  </g>
  <g
     fill="#ffd600"
     fill-opacity="1"
     id="g3257"
     transform="translate(-5.52779,-61.677185)">
    <g
       transform="translate(73.86956,158.3764)"
       id="g3255">
      <g
         id="g3253">
        <path
           d="m 17.863281,0.660156 c 4.683594,0 8.125,-3.296875 8.125,-7.980468 v -29.425782 h 25.765625 c 2.269532,0 4.246094,-0.734375 5.78125,-2.199218 1.539063,-1.460938 2.34375,-3.292969 2.34375,-5.5625 0,-2.269532 -0.804687,-4.171876 -2.34375,-5.710938 C 56,-51.753906 54.023438,-52.558594 51.753906,-52.558594 H 25.988281 V -80.375 h 36.746094 c 2.195313,0 4.097656,-0.804688 5.710937,-2.417969 1.535157,-1.609375 2.269532,-3.511719 2.269532,-5.78125 0,-2.125 -0.878906,-4.246093 -2.269532,-5.710937 -1.613281,-1.609375 -3.515624,-2.414063 -5.710937,-2.414063 H 17.863281 c -2.710937,0 -4.832031,0.878907 -6.222656,2.632813 -1.171875,1.464844 -1.832031,3.222656 -1.90625,5.199218 v 81.546876 c 0,2.269531 0.808594,4.171874 2.34375,5.636718 1.539063,1.539063 3.515625,2.34375 5.785156,2.34375 z m 0,0"
           id="path3251" />
      </g>
    </g>
  </g>
  <g
     fill="#ffd600"
     fill-opacity="1"
     id="g3265"
     transform="translate(-5.52779,-61.677185)">
    <g
       transform="translate(140.07713,158.3764)"
       id="g3263">
      <g
         id="g3261">
        <path
           d="m 43.921875,0.804688 c 10.90625,0 20.058594,-3.804688 26.277344,-10.761719 6.152343,-6.804688 9.519531,-16.394531 9.519531,-27.742188 V -88.28125 c 0,-2.269531 -0.804688,-4.246094 -2.417969,-5.855469 -1.683593,-1.539062 -3.660156,-2.34375 -5.929687,-2.34375 -2.339844,0 -4.316406,0.804688 -6,2.34375 -1.683594,1.535157 -2.492188,3.511719 -2.492188,5.855469 v 50.4375 c 0,6.660156 -1.753906,12.148438 -4.976562,15.957031 -3.292969,3.878907 -7.976563,6 -13.613282,6 -11.714843,0 -18.375,-7.390625 -18.375,-21.667969 V -88.28125 c 0,-2.34375 -0.804687,-4.320312 -2.488281,-5.855469 -1.683593,-1.539062 -3.660156,-2.34375 -5.929687,-2.34375 -2.34375,0 -4.320313,0.804688 -5.855469,2.34375 -1.683594,1.535157 -2.492187,3.511719 -2.492187,5.855469 v 51.828125 c 0,10.539063 3.148437,19.761719 9.078124,26.425781 6.078126,6.953125 14.859376,10.832032 25.695313,10.832032 z m 0,0"
           id="path3259" />
      </g>
    </g>
  </g>
  <g
     fill="#ffd600"
     fill-opacity="1"
     id="g3273"
     transform="translate(-5.52779,-61.677185)">
    <g
       transform="translate(6.072356,172.66805)"
       id="g3271">
      <g
         id="g3269">
        <path
           d="m 1.433594,0.046875 c 0.183594,0 0.339844,-0.0625 0.476562,-0.1875 0.132813,-0.121094 0.199219,-0.28125 0.199219,-0.46875 v -4.050781 c 0,-1.148438 0.53125,-1.742188 1.46875,-1.742188 0.449219,0 0.835937,0.171875 1.09375,0.480469 0.257813,0.304687 0.398437,0.746094 0.398437,1.277344 v 4.035156 c 0,0.1875 0.066407,0.347656 0.199219,0.46875 0.125,0.125 0.28125,0.1875 0.46875,0.1875 0.1875,0 0.347657,-0.0625 0.480469,-0.1875 0.128906,-0.128906 0.195312,-0.285156 0.195312,-0.46875 v -4.039063 c 0,-0.910156 -0.269531,-1.683593 -0.761718,-2.226562 -0.5,-0.546875 -1.226563,-0.859375 -2.109375,-0.859375 -0.867188,0 -1.5625,0.3125 -2.050781,0.859375 -0.472657,0.539062 -0.730469,1.28125 -0.730469,2.121094 v 4.144531 c 0,0.1875 0.0625,0.347656 0.199219,0.46875 0.132812,0.125 0.292968,0.1875 0.472656,0.1875 z m 0,0"
           id="path3267" />
      </g>
    </g>
  </g>
  <g
     fill="#ffd600"
     fill-opacity="1"
     id="g3281"
     transform="translate(-5.52779,-61.677185)">
    <g
       transform="translate(18.019905,172.66805)"
       id="g3279">
      <g
         id="g3277">
        <path
           d="m 3.601562,0.0625 c 0.777344,0 1.511719,-0.296875 2.042969,-0.816406 0.539063,-0.523438 0.851563,-1.253906 0.851563,-2.082032 v -2.011718 c 0,-0.828125 -0.3125,-1.558594 -0.851563,-2.082032 -0.53125,-0.519531 -1.265625,-0.816406 -2.042969,-0.816406 -0.777343,0 -1.503906,0.296875 -2.039062,0.816406 -0.539062,0.535157 -0.855469,1.253907 -0.855469,2.082032 v 2.011718 c 0,0.828126 0.316407,1.546876 0.855469,2.082032 C 2.097656,-0.234375 2.824219,0.0625 3.601562,0.0625 Z m 0,-1.308594 c -0.425781,0 -0.824218,-0.148437 -1.113281,-0.421875 -0.296875,-0.28125 -0.46875,-0.675781 -0.46875,-1.160156 v -2.027344 c 0,-0.484375 0.171875,-0.882812 0.46875,-1.164062 0.289063,-0.265625 0.6875,-0.417969 1.113281,-0.417969 0.425782,0 0.824219,0.152344 1.113282,0.417969 0.296875,0.28125 0.46875,0.679687 0.46875,1.164062 v 2.027344 c 0,0.484375 -0.171875,0.878906 -0.46875,1.160156 -0.289063,0.273438 -0.6875,0.421875 -1.113282,0.421875 z m 0,0"
           id="path3275" />
      </g>
    </g>
  </g>
  <g
     fill="#ffd600"
     fill-opacity="1"
     id="g3289"
     transform="translate(-5.52779,-61.677185)">
    <g
       transform="translate(30.002593,172.66805)"
       id="g3287">
      <g
         id="g3285">
        <path
           d="m 1.433594,0.046875 c 0.183594,0 0.339844,-0.0625 0.476562,-0.1875 0.132813,-0.121094 0.199219,-0.28125 0.199219,-0.46875 v -4.050781 c 0,-1.148438 0.53125,-1.742188 1.46875,-1.742188 0.449219,0 0.835937,0.171875 1.09375,0.480469 0.257813,0.304687 0.398437,0.746094 0.398437,1.277344 v 4.035156 c 0,0.1875 0.066407,0.347656 0.199219,0.46875 0.125,0.125 0.28125,0.1875 0.46875,0.1875 0.1875,0 0.347657,-0.0625 0.480469,-0.1875 0.128906,-0.128906 0.195312,-0.285156 0.195312,-0.46875 v -4.039063 c 0,-0.910156 -0.269531,-1.683593 -0.761718,-2.226562 -0.5,-0.546875 -1.226563,-0.859375 -2.109375,-0.859375 -0.867188,0 -1.5625,0.3125 -2.050781,0.859375 -0.472657,0.539062 -0.730469,1.28125 -0.730469,2.121094 v 4.144531 c 0,0.1875 0.0625,0.347656 0.199219,0.46875 0.132812,0.125 0.292968,0.1875 0.472656,0.1875 z m 0,0"
           id="path3283" />
      </g>
    </g>
  </g>
  <g
     fill="#ffd600"
     fill-opacity="1"
     id="g3297"
     transform="translate(-5.52779,-61.677185)">
    <g
       transform="translate(41.950141,172.66805)"
       id="g3295">
      <g
         id="g3293">
        <path
           d="m 4.351562,-2.863281 c 0.179688,0 0.339844,-0.066407 0.472657,-0.195313 0.125,-0.121094 0.1875,-0.273437 0.1875,-0.457031 0,-0.179687 -0.0625,-0.335937 -0.1875,-0.472656 C 4.691406,-4.117188 4.53125,-4.179688 4.351562,-4.179688 H 1.058594 c -0.179688,0 -0.339844,0.0625 -0.46875,0.191407 -0.128906,0.136719 -0.191406,0.292969 -0.191406,0.472656 0,0.175781 0.0625,0.328125 0.191406,0.457031 0.128906,0.128906 0.289062,0.195313 0.46875,0.195313 z m 0,0"
           id="path3291" />
      </g>
    </g>
  </g>
  <g
     fill="#ffd600"
     fill-opacity="1"
     id="g3305"
     transform="translate(-5.52779,-61.677185)">
    <g
       transform="translate(52.181782,172.66805)"
       id="g3303">
      <g
         id="g3301">
        <path
           d="m 1.429688,0.0507812 c 0.375,0 0.648437,-0.2617192 0.648437,-0.6367192 v -2.355468 h 2.0625 c 0.179687,0 0.339844,-0.058594 0.460937,-0.175782 0.125,-0.117187 0.1875,-0.261718 0.1875,-0.445312 0,-0.179688 -0.0625,-0.332031 -0.1875,-0.453125 -0.121093,-0.125 -0.28125,-0.1875 -0.460937,-0.1875 h -2.0625 v -2.226563 h 2.941406 c 0.175781,0 0.328125,-0.066406 0.457031,-0.195312 0.121094,-0.128906 0.179688,-0.28125 0.179688,-0.460938 0,-0.171874 -0.070312,-0.339843 -0.179688,-0.457031 C 5.347656,-7.671875 5.195312,-7.734375 5.019531,-7.734375 H 1.429688 c -0.21875,0 -0.386719,0.070313 -0.5,0.207031 -0.09375,0.117188 -0.144532,0.257813 -0.152344,0.417969 v 6.523437 c 0,0.183594 0.066406,0.335938 0.1875,0.453126 0.125,0.1210932 0.28125,0.1835932 0.464844,0.1835932 z m 0,0"
           id="path3299" />
      </g>
    </g>
  </g>
  <g
     fill="#ffd600"
     fill-opacity="1"
     id="g3313"
     transform="translate(-5.52779,-61.677185)">
    <g
       transform="translate(62.694528,172.66805)"
       id="g3311">
      <g
         id="g3309">
        <path
           d="m 3.515625,0.0625 c 0.871094,0 1.601563,-0.300781 2.101563,-0.859375 0.492187,-0.542969 0.761718,-1.3125 0.761718,-2.21875 V -7.0625 c 0,-0.183594 -0.066406,-0.339844 -0.195312,-0.46875 -0.132813,-0.121094 -0.292969,-0.1875 -0.472656,-0.1875 -0.1875,0 -0.347657,0.066406 -0.480469,0.1875 C 5.09375,-7.410156 5.03125,-7.25 5.03125,-7.0625 v 4.035156 c 0,0.53125 -0.140625,0.972656 -0.398438,1.277344 -0.265624,0.308594 -0.640624,0.480469 -1.089843,0.480469 -0.9375,0 -1.46875,-0.59375 -1.46875,-1.734375 V -7.0625 c 0,-0.1875 -0.066407,-0.347656 -0.199219,-0.46875 -0.136719,-0.121094 -0.292969,-0.1875 -0.476562,-0.1875 -0.1875,0 -0.34375,0.066406 -0.46875,0.1875 C 0.796875,-7.410156 0.730469,-7.25 0.730469,-7.0625 v 4.144531 c 0,0.84375 0.253906,1.582031 0.726562,2.117188 C 1.945312,-0.246094 2.648438,0.0625 3.515625,0.0625 Z m 0,0"
           id="path3307" />
      </g>
    </g>
  </g>
  <g
     fill="#ffd600"
     fill-opacity="1"
     id="g3321"
     transform="translate(-5.52779,-61.677185)">
    <g
       transform="translate(74.577655,172.66805)"
       id="g3319">
      <g
         id="g3317">
        <path
           d="m 1.433594,0.046875 c 0.183594,0 0.339844,-0.0625 0.476562,-0.1875 0.132813,-0.121094 0.199219,-0.28125 0.199219,-0.46875 v -4.050781 c 0,-1.148438 0.53125,-1.742188 1.46875,-1.742188 0.449219,0 0.835937,0.171875 1.09375,0.480469 0.257813,0.304687 0.398437,0.746094 0.398437,1.277344 v 4.035156 c 0,0.1875 0.066407,0.347656 0.199219,0.46875 0.125,0.125 0.28125,0.1875 0.46875,0.1875 0.1875,0 0.347657,-0.0625 0.480469,-0.1875 0.128906,-0.128906 0.195312,-0.285156 0.195312,-0.46875 v -4.039063 c 0,-0.910156 -0.269531,-1.683593 -0.761718,-2.226562 -0.5,-0.546875 -1.226563,-0.859375 -2.109375,-0.859375 -0.867188,0 -1.5625,0.3125 -2.050781,0.859375 -0.472657,0.539062 -0.730469,1.28125 -0.730469,2.121094 v 4.144531 c 0,0.1875 0.0625,0.347656 0.199219,0.46875 0.132812,0.125 0.292968,0.1875 0.472656,0.1875 z m 0,0"
           id="path3315" />
      </g>
    </g>
  </g>
  <g
     fill="#ffd600"
     fill-opacity="1"
     id="g3329"
     transform="translate(-5.52779,-61.677185)">
    <g
       transform="translate(86.525205,172.66805)"
       id="g3327">
      <g
         id="g3325">
        <path
           d="m 3.5625,0.0625 c 0.582031,0 1.132812,-0.167969 1.597656,-0.476562 0.460938,-0.304688 0.820313,-0.75 1.082032,-1.332032 0.03125,-0.0625 0.046874,-0.140625 0.058593,-0.234375 C 6.3125,-2.074219 6.320312,-2.160156 6.320312,-2.25 v -1.386719 c 0,-0.164062 -0.078124,-0.332031 -0.195312,-0.449219 -0.132812,-0.125 -0.285156,-0.1875 -0.460938,-0.1875 L 4.457031,-4.285156 c -0.183593,0 -0.328125,0.0625 -0.453125,0.191406 -0.121094,0.136719 -0.1875,0.289062 -0.1875,0.457031 0,0.179688 0.066406,0.339844 0.1875,0.460938 0.125,0.128906 0.269532,0.195312 0.453125,0.195312 h 0.65625 v 0.8125 c -0.183593,0.289063 -0.347656,0.503907 -0.574219,0.652344 -0.265624,0.179687 -0.585937,0.269531 -0.976562,0.269531 -0.429688,0 -0.816406,-0.152344 -1.089844,-0.433594 C 2.191406,-1.96875 2.027344,-2.371094 2.027344,-2.859375 v -1.964844 c 0,-0.476562 0.15625,-0.890625 0.4375,-1.179687 0.265625,-0.28125 0.652344,-0.433594 1.078125,-0.433594 0.390625,0 0.703125,0.078125 0.925781,0.234375 0.203125,0.140625 0.34375,0.328125 0.527344,0.628906 0.09375,0.15625 0.261718,0.234375 0.457031,0.234375 0.1875,0 0.363281,-0.078125 0.480469,-0.195312 0.121094,-0.121094 0.1875,-0.273438 0.1875,-0.445313 0,-0.15625 -0.042969,-0.296875 -0.128906,-0.421875 C 5.714844,-6.816406 5.40625,-7.128906 5.066406,-7.34375 4.625,-7.613281 4.121094,-7.746094 3.542969,-7.746094 c -0.789063,0 -1.492188,0.296875 -2.007813,0.828125 C 1.019531,-6.382812 0.71875,-5.640625 0.71875,-4.8125 v 1.941406 c 0,0.828125 0.304688,1.570313 0.828125,2.105469 C 2.0625,-0.234375 2.769531,0.0625 3.5625,0.0625 Z m 0,0"
           id="path3323" />
      </g>
    </g>
  </g>
  <g
     fill="#ffd600"
     fill-opacity="1"
     id="g3337"
     transform="translate(-5.52779,-61.677185)">
    <g
       transform="translate(98.238501,172.66805)"
       id="g3335">
      <g
         id="g3333">
        <path
           d="m 1.429688,0.0507812 c 0.179687,0 0.339843,-0.0625 0.460937,-0.1835932 0.125,-0.117188 0.1875,-0.269532 0.1875,-0.453126 v -6.511718 c 0,-0.375 -0.273437,-0.636719 -0.648437,-0.636719 -0.175782,0 -0.328126,0.058594 -0.457032,0.179687 -0.128906,0.128907 -0.195312,0.28125 -0.195312,0.457032 v 6.511718 c 0,0.183594 0.066406,0.328126 0.195312,0.453126 0.121094,0.1210932 0.273438,0.1835932 0.457032,0.1835932 z m 0,0"
           id="path3331" />
      </g>
    </g>
  </g>
  <g
     fill="#ffd600"
     fill-opacity="1"
     id="g3345"
     transform="translate(-5.52779,-61.677185)">
    <g
       transform="translate(105.86993,172.66805)"
       id="g3343">
      <g
         id="g3341">
        <path
           d="M 4.191406,0 C 4.800781,0 5.375,-0.246094 5.796875,-0.667969 c 0.421875,-0.421875 0.675781,-1 0.675781,-1.617187 0,-0.648438 -0.253906,-1.21875 -0.703125,-1.644532 0.378907,-0.402343 0.597657,-0.917968 0.597657,-1.5 0,-0.609374 -0.246094,-1.234374 -0.644532,-1.640624 C 5.316406,-7.484375 4.75,-7.730469 4.15625,-7.730469 H 1.382812 c -0.183593,0 -0.339843,0.066407 -0.464843,0.1875 -0.128907,0.128907 -0.191407,0.28125 -0.199219,0.457031 v 6.417969 c 0,0.1875 0.078125,0.359375 0.199219,0.476563 C 1.046875,-0.0625 1.199219,0 1.382812,0 Z M 2.0625,-4.574219 v -1.816406 h 2 c 0.265625,0 0.515625,0.089844 0.6875,0.234375 0.167969,0.148438 0.285156,0.445312 0.285156,0.726562 0,0.234376 -0.082031,0.433594 -0.238281,0.59375 -0.160156,0.15625 -0.375,0.257813 -0.605469,0.261719 z m 0,3.234375 v -1.898437 h 2.128906 c 0.242188,0 0.46875,0.105469 0.640625,0.285156 0.164063,0.183594 0.261719,0.417969 0.261719,0.667969 0,0.253906 -0.097656,0.492187 -0.261719,0.664062 -0.171875,0.179688 -0.398437,0.28125 -0.640625,0.28125 z m 0,0"
           id="path3339" />
      </g>
    </g>
  </g>
  <g
     fill="#ffd600"
     fill-opacity="1"
     id="g3353"
     transform="translate(-5.52779,-61.677185)">
    <g
       transform="translate(117.62422,172.66805)"
       id="g3351">
      <g
         id="g3349">
        <path
           d="m 5.03125,0 c 0.375,0 0.648438,-0.269531 0.648438,-0.644531 0,-0.179688 -0.0625,-0.332031 -0.1875,-0.457031 -0.121094,-0.121094 -0.28125,-0.1875 -0.460938,-0.1875 L 2.078125,-1.292969 V -7.09375 c 0,-0.179688 -0.0625,-0.332031 -0.1875,-0.453125 -0.121094,-0.125 -0.28125,-0.1875 -0.460937,-0.1875 -0.183594,0 -0.335938,0.0625 -0.457032,0.1875 -0.128906,0.125 -0.195312,0.277344 -0.195312,0.453125 v 6.457031 c 0,0.167969 0.058594,0.316407 0.183594,0.445313 C 1.078125,-0.0742188 1.234375,0 1.398438,0 Z m 0,0"
           id="path3347" />
      </g>
    </g>
  </g>
  <g
     fill="#ffd600"
     fill-opacity="1"
     id="g3361"
     transform="translate(-5.52779,-61.677185)">
    <g
       transform="translate(128.50006,172.66805)"
       id="g3359">
      <g
         id="g3357">
        <path
           d="m 5.03125,0 c 0.179688,0 0.332031,-0.0625 0.457031,-0.1875 0.121094,-0.117188 0.1875,-0.269531 0.1875,-0.457031 0,-0.167969 -0.070312,-0.339844 -0.1875,-0.457031 C 5.359375,-1.230469 5.207031,-1.292969 5.03125,-1.292969 H 2.078125 v -2.011719 h 2.179687 c 0.1875,0 0.339844,-0.058593 0.460938,-0.179687 0.125,-0.117187 0.1875,-0.265625 0.1875,-0.445313 0,-0.179687 -0.0625,-0.332031 -0.1875,-0.457031 -0.121094,-0.121093 -0.28125,-0.1875 -0.460938,-0.1875 H 2.078125 V -6.429688 H 5.03125 c 0.175781,0 0.328125,-0.066406 0.457031,-0.195312 0.121094,-0.121094 0.1875,-0.28125 0.1875,-0.460938 0,-0.171874 -0.070312,-0.339843 -0.1875,-0.457031 C 5.359375,-7.671875 5.207031,-7.734375 5.03125,-7.734375 H 1.433594 c -0.1875,0 -0.34375,0.0625 -0.46875,0.1875 -0.121094,0.121094 -0.1875,0.277344 -0.1875,0.460937 v 6.441407 c 0,0.351562 0.253906,0.6171872 0.605468,0.644531 z m 0,0"
           id="path3355" />
      </g>
    </g>
  </g>
  <g
     fill="#ffd600"
     fill-opacity="1"
     id="g3367"
     transform="translate(-5.52779,-61.677185)">
    <g
       transform="translate(139.2002,172.66805)"
       id="g3365">
      <g
         id="g3363" />
    </g>
  </g>
  <g
     fill="#ffd600"
     fill-opacity="1"
     id="g3375"
     transform="translate(-5.52779,-61.677185)">
    <g
       transform="translate(146.6735,172.66805)"
       id="g3373">
      <g
         id="g3371">
        <path
           d="m 3.515625,0.0625 c 0.871094,0 1.601563,-0.300781 2.101563,-0.859375 0.492187,-0.542969 0.761718,-1.3125 0.761718,-2.21875 V -7.0625 c 0,-0.183594 -0.066406,-0.339844 -0.195312,-0.46875 -0.132813,-0.121094 -0.292969,-0.1875 -0.472656,-0.1875 -0.1875,0 -0.347657,0.066406 -0.480469,0.1875 C 5.09375,-7.410156 5.03125,-7.25 5.03125,-7.0625 v 4.035156 c 0,0.53125 -0.140625,0.972656 -0.398438,1.277344 -0.265624,0.308594 -0.640624,0.480469 -1.089843,0.480469 -0.9375,0 -1.46875,-0.59375 -1.46875,-1.734375 V -7.0625 c 0,-0.1875 -0.066407,-0.347656 -0.199219,-0.46875 -0.136719,-0.121094 -0.292969,-0.1875 -0.476562,-0.1875 -0.1875,0 -0.34375,0.066406 -0.46875,0.1875 C 0.796875,-7.410156 0.730469,-7.25 0.730469,-7.0625 v 4.144531 c 0,0.84375 0.253906,1.582031 0.726562,2.117188 C 1.945312,-0.246094 2.648438,0.0625 3.515625,0.0625 Z m 0,0"
           id="path3369" />
      </g>
    </g>
  </g>
  <g
     fill="#ffd600"
     fill-opacity="1"
     id="g3383"
     transform="translate(-5.52779,-61.677185)">
    <g
       transform="translate(158.55663,172.66805)"
       id="g3381">
      <g
         id="g3379">
        <path
           d="m 1.429688,0 c 0.179687,0 0.339843,-0.0625 0.460937,-0.1875 0.125,-0.117188 0.1875,-0.269531 0.1875,-0.449219 V -3.09375 l 3.132813,2.902344 C 5.328125,-0.0625 5.480469,0 5.664062,0 5.84375,0 6.003906,-0.0703125 6.132812,-0.203125 6.25,-0.320312 6.324219,-0.496094 6.324219,-0.660156 c 0,-0.175782 -0.0625,-0.328125 -0.1875,-0.453125 l -3.101563,-2.875 2.933594,-2.617188 c 0.132812,-0.136719 0.199219,-0.289062 0.199219,-0.46875 0,-0.183593 -0.082031,-0.351562 -0.207031,-0.472656 -0.121094,-0.117187 -0.292969,-0.1875 -0.457032,-0.1875 -0.15625,0 -0.304687,0.058594 -0.4375,0.179687 l -2.988281,2.683594 v -2.226562 c 0,-0.183594 -0.0625,-0.335938 -0.1875,-0.457032 -0.128906,-0.121093 -0.28125,-0.179687 -0.460937,-0.179687 -0.175782,0 -0.328126,0.058594 -0.457032,0.179687 -0.128906,0.128907 -0.195312,0.28125 -0.195312,0.457032 v 6.460937 c 0,0.179688 0.066406,0.328125 0.195312,0.449219 C 1.09375,-0.0625 1.246094,0 1.429688,0 Z m 0,0"
           id="path3377" />
      </g>
    </g>
  </g>
  <g
     fill="#ffd600"
     fill-opacity="1"
     id="g3391"
     transform="translate(-5.52779,-61.677185)">
    <g
       transform="translate(169.84241,172.66805)"
       id="g3389">
      <g
         id="g3387">
        <path
           d="m 1.382812,0.0117188 c 0.167969,0 0.339844,-0.0703126 0.457032,-0.1874998 0.128906,-0.128907 0.191406,-0.28125 0.191406,-0.457031 v -1.410157 h 1.019531 l 1.832031,1.863281 c 0.113282,0.1210942 0.265626,0.18359425 0.445313,0.18359425 0.164063,0 0.335937,-0.07421875 0.457031,-0.19140625 0.136719,-0.132812 0.199219,-0.285156 0.199219,-0.457031 0,-0.164063 -0.0625,-0.328125 -0.1875,-0.460938 l -1.128906,-1.15625 c 0.515625,-0.210937 0.949219,-0.5625 1.253906,-1.011719 0.308594,-0.453124 0.484375,-0.996093 0.484375,-1.574218 0,-0.84375 -0.304688,-1.535156 -0.835938,-2.070313 -0.535156,-0.515625 -1.253906,-0.816406 -2.03125,-0.816406 h -2.15625 c -0.183593,0 -0.335937,0.0625 -0.464843,0.191406 -0.117188,0.117188 -0.1875,0.285157 -0.1875,0.457031 v 6.453126 c 0,0.183593 0.066406,0.335937 0.1875,0.457031 0.125,0.1249998 0.28125,0.1874998 0.464843,0.1874998 z M 2.03125,-3.351562 V -6.429688 H 3.5625 c 0.414062,0 0.800781,0.167969 1.085938,0.457032 0.28125,0.28125 0.457031,0.71875 0.457031,1.125 0,0.398437 -0.164063,0.773437 -0.445313,1.054687 C 4.375,-3.515625 3.980469,-3.351562 3.554688,-3.351562 Z m 0,0"
           id="path3385" />
      </g>
    </g>
  </g>
  <g
     fill="#ffd600"
     fill-opacity="1"
     id="g3399"
     transform="translate(-5.52779,-61.677185)">
    <g
       transform="translate(181.39759,172.66805)"
       id="g3397">
      <g
         id="g3395">
        <path
           d="m 1.398438,0.046875 c 0.183593,0 0.339843,-0.0625 0.476562,-0.1875 0.132812,-0.121094 0.199219,-0.28125 0.199219,-0.46875 V -2.089844 H 5.03125 v 1.480469 c 0,0.1875 0.0625,0.347656 0.199219,0.46875 0.132812,0.125 0.292969,0.1875 0.480469,0.1875 0.179687,0 0.339843,-0.0625 0.472656,-0.1875 0.128906,-0.128906 0.195312,-0.285156 0.195312,-0.46875 v -4.039063 c 0,-0.910156 -0.269531,-1.683593 -0.761718,-2.226562 -0.5,-0.546875 -1.230469,-0.859375 -2.101563,-0.859375 -0.867187,0 -1.570313,0.3125 -2.058594,0.859375 -0.472656,0.539062 -0.726562,1.277344 -0.726562,2.121094 v 4.144531 c 0,0.1875 0.066406,0.347656 0.199219,0.46875 0.125,0.125 0.28125,0.1875 0.46875,0.1875 z m 0.675781,-3.472656 v -1.234375 c 0,-1.132813 0.539062,-1.742188 1.46875,-1.742188 0.449219,0 0.824219,0.171875 1.089843,0.480469 0.257813,0.304687 0.398438,0.746094 0.398438,1.277344 v 1.21875 z m 0,0"
           id="path3393" />
      </g>
    </g>
  </g>
  <g
     fill="#ffd600"
     fill-opacity="1"
     id="g3407"
     transform="translate(-5.52779,-61.677185)">
    <g
       transform="translate(193.28072,172.66805)"
       id="g3405">
      <g
         id="g3403">
        <path
           d="m 1.429688,0.0507812 c 0.179687,0 0.339843,-0.0625 0.460937,-0.1835932 0.125,-0.117188 0.1875,-0.269532 0.1875,-0.453126 v -6.511718 c 0,-0.375 -0.273437,-0.636719 -0.648437,-0.636719 -0.175782,0 -0.328126,0.058594 -0.457032,0.179687 -0.128906,0.128907 -0.195312,0.28125 -0.195312,0.457032 v 6.511718 c 0,0.183594 0.066406,0.328126 0.195312,0.453126 0.121094,0.1210932 0.273438,0.1835932 0.457032,0.1835932 z m 0,0"
           id="path3401" />
      </g>
    </g>
  </g>
  <g
     fill="#ffd600"
     fill-opacity="1"
     id="g3415"
     transform="translate(-5.52779,-61.677185)">
    <g
       transform="translate(200.91215,172.66805)"
       id="g3413">
      <g
         id="g3411">
        <path
           d="m 1.433594,0.046875 c 0.183594,0 0.339844,-0.0625 0.476562,-0.1875 0.132813,-0.121094 0.199219,-0.28125 0.199219,-0.46875 v -4.050781 c 0,-1.148438 0.53125,-1.742188 1.46875,-1.742188 0.449219,0 0.835937,0.171875 1.09375,0.480469 0.257813,0.304687 0.398437,0.746094 0.398437,1.277344 v 4.035156 c 0,0.1875 0.066407,0.347656 0.199219,0.46875 0.125,0.125 0.28125,0.1875 0.46875,0.1875 0.1875,0 0.347657,-0.0625 0.480469,-0.1875 0.128906,-0.128906 0.195312,-0.285156 0.195312,-0.46875 v -4.039063 c 0,-0.910156 -0.269531,-1.683593 -0.761718,-2.226562 -0.5,-0.546875 -1.226563,-0.859375 -2.109375,-0.859375 -0.867188,0 -1.5625,0.3125 -2.050781,0.859375 -0.472657,0.539062 -0.730469,1.28125 -0.730469,2.121094 v 4.144531 c 0,0.1875 0.0625,0.347656 0.199219,0.46875 0.132812,0.125 0.292968,0.1875 0.472656,0.1875 z m 0,0"
           id="path3409" />
      </g>
    </g>
  </g>
  <g
     fill="#ffd600"
     fill-opacity="1"
     id="g3423"
     transform="translate(-5.52779,-61.677185)">
    <g
       transform="translate(212.8597,172.66805)"
       id="g3421">
      <g
         id="g3419">
        <path
           d="m 5.03125,0 c 0.179688,0 0.332031,-0.0625 0.457031,-0.1875 0.121094,-0.117188 0.1875,-0.269531 0.1875,-0.457031 0,-0.167969 -0.070312,-0.339844 -0.1875,-0.457031 C 5.359375,-1.230469 5.207031,-1.292969 5.03125,-1.292969 H 2.078125 v -2.011719 h 2.179687 c 0.1875,0 0.339844,-0.058593 0.460938,-0.179687 0.125,-0.117187 0.1875,-0.265625 0.1875,-0.445313 0,-0.179687 -0.0625,-0.332031 -0.1875,-0.457031 -0.121094,-0.121093 -0.28125,-0.1875 -0.460938,-0.1875 H 2.078125 V -6.429688 H 5.03125 c 0.175781,0 0.328125,-0.066406 0.457031,-0.195312 0.121094,-0.121094 0.1875,-0.28125 0.1875,-0.460938 0,-0.171874 -0.070312,-0.339843 -0.1875,-0.457031 C 5.359375,-7.671875 5.207031,-7.734375 5.03125,-7.734375 H 1.433594 c -0.1875,0 -0.34375,0.0625 -0.46875,0.1875 -0.121094,0.121094 -0.1875,0.277344 -0.1875,0.460937 v 6.441407 c 0,0.351562 0.253906,0.6171872 0.605468,0.644531 z m 0,0"
           id="path3417" />
      </g>
    </g>
  </g>
  <g
     id="g32"
     transform="matrix(0.39410803,0,0,0.40946651,-192.40256,-157.26754)">
			<g
   id="g30">
				<polygon
   class="st0"
   points="909.89,479.93 903.99,485.54 897.93,480.09 903.82,474.49 "
   id="polygon4"
   style="fill:#ffd600" />

				<polygon
   class="st0"
   points="945.9,479.37 942.2,482.88 938.4,479.47 942.09,475.96 "
   id="polygon6"
   style="fill:#ffd600" />

				<polygon
   class="st0"
   points="948.67,514.56 942.78,520.17 936.71,514.72 942.61,509.11 "
   id="polygon8"
   style="fill:#ffd600" />

				<polygon
   class="st0"
   points="986.44,478.81 980.54,484.41 974.47,478.96 980.37,473.36 "
   id="polygon10"
   style="fill:#ffd600" />

				<polygon
   class="st0"
   points="947.58,443.93 941.69,449.54 935.62,444.09 941.52,438.48 "
   id="polygon12"
   style="fill:#ffd600" />

				<polygon
   class="st0"
   points="961.42,514.32 944.5,500.09 944.23,483.57 961.43,499.47 "
   id="polygon14"
   style="fill:#ffd600" />

				<polygon
   class="st0"
   points="960.33,443.7 943.86,458.38 944.09,474.9 960.8,458.55 "
   id="polygon16"
   style="fill:#ffd600" />

				<polygon
   class="st0"
   points="940.49,483.83 924.2,498.88 924.53,515.05 940.48,500.85 "
   id="polygon18"
   style="fill:#ffd600" />

				<polygon
   class="st0"
   points="940.36,474.96 923.6,460.35 923.43,444.17 939.82,457.94 "
   id="polygon20"
   style="fill:#ffd600" />

				<polygon
   class="st0"
   points="937.16,481.18 921.09,496.43 904.38,496.66 919.78,481.32 "
   id="polygon22"
   style="fill:#ffd600" />

				<polygon
   class="st0"
   points="947.29,481.04 963.84,495.87 980.55,495.74 964.68,480.73 "
   id="polygon24"
   style="fill:#ffd600" />

				<polygon
   class="st0"
   points="947.24,477.36 963.31,462.1 980.02,461.8 964.62,477.21 "
   id="polygon26"
   style="fill:#ffd600" />

				<polygon
   class="st0"
   points="937.11,477.49 920.57,462.67 903.79,462.77 919.01,477.61 "
   id="polygon28"
   style="fill:#ffd600" />

			</g>

		</g>
  <metadata
     id="metadata4254">
    <rdf:RDF>
      <cc:Work
         rdf:about="">
        <dc:title>NFU_logo</dc:title>
      </cc:Work>
    </rdf:RDF>
  </metadata>
</svg>
