<svg xmlns="http://www.w3.org/2000/svg" xmlns:xlink="http://www.w3.org/1999/xlink" width="300" zoomAndPan="magnify" viewBox="0 0 224.87999 225" height="300" preserveAspectRatio="xMidYMid meet" version="1.0"><defs><filter x="0%" y="0%" width="100%" height="100%" id="ac72efdf2f"><feColorMatrix values="0 0 0 0 1 0 0 0 0 1 0 0 0 0 1 0 0 0 1 0" color-interpolation-filters="sRGB"/></filter><g/><mask id="d1a76217bc"><g filter="url(#ac72efdf2f)"><rect x="-22.487999" width="269.855988" fill="#000000" y="-22.5" height="270" fill-opacity="0.498"/></g></mask><clipPath id="3afd4b3296"><path d="M 2 53 L 178 53 L 178 98 L 2 98 Z M 2 53 " clip-rule="nonzero"/></clipPath><clipPath id="796aabeffb"><path d="M 34.804688 0.207031 L 188.285156 75.351562 L 154.289062 144.796875 L 0.804688 69.652344 Z M 34.804688 0.207031 " clip-rule="nonzero"/></clipPath><clipPath id="88a515cb13"><path d="M 34.804688 0.207031 L 188.285156 75.351562 L 154.289062 144.796875 L 0.804688 69.652344 Z M 34.804688 0.207031 " clip-rule="nonzero"/></clipPath><clipPath id="c51cfdb76e"><rect x="0" width="189" y="0" height="145"/></clipPath><clipPath id="44389900c9"><path d="M 21 106 L 185 106 L 185 148 L 21 148 Z M 21 106 " clip-rule="nonzero"/></clipPath><clipPath id="968707d57e"><path d="M 51.828125 56.996094 L 194.742188 126.964844 L 162.960938 191.878906 L 20.046875 121.910156 Z M 51.828125 56.996094 " clip-rule="nonzero"/></clipPath><clipPath id="a1ea3130d4"><path d="M 51.828125 56.996094 L 194.742188 126.964844 L 162.960938 191.878906 L 20.046875 121.910156 Z M 51.828125 56.996094 " clip-rule="nonzero"/></clipPath></defs><g mask="url(#d1a76217bc)"><g transform="matrix(1, 0, 0, 1, 32, 13)"><g clip-path="url(#c51cfdb76e)"><g clip-path="url(#3afd4b3296)"><g clip-path="url(#796aabeffb)"><g clip-path="url(#88a515cb13)"><path fill="#005bbc" d="M 145.066406 78.945312 C 145.964844 79.089844 147.046875 79.261719 148.019531 79.417969 C 147.082031 79.375 146.140625 79.332031 145.199219 79.296875 C 145.191406 79.191406 145.148438 79.074219 145.066406 78.945312 Z M 65.703125 82.589844 L 65.835938 82.28125 C 66.089844 82.328125 66.351562 82.386719 66.605469 82.4375 C 66.304688 82.488281 66.003906 82.53125 65.703125 82.589844 Z M 36.003906 73.109375 C 35.664062 73.007812 35.308594 72.921875 34.949219 72.847656 C 35.3125 72.828125 35.671875 72.8125 36.035156 72.792969 C 36.214844 72.882812 36.242188 72.980469 36.003906 73.109375 Z M 157.242188 68.796875 C 155.636719 68.71875 158.910156 67.546875 157.335938 66.804688 C 155.730469 66.726562 152.519531 66.574219 150.914062 66.496094 C 149.355469 65.421875 152.613281 64.585938 151.050781 63.511719 C 149.496094 62.441406 143.039062 62.792969 141.464844 62.050781 C 136.671875 61.15625 144.722656 61.214844 149.539062 61.445312 C 147.96875 60.703125 152.753906 61.601562 152.785156 60.9375 C 152.847656 59.613281 152.910156 58.285156 146.527344 56.980469 C 144.9375 56.570312 146.589844 55.652344 146.621094 54.988281 C 141.796875 54.761719 136.875 54.53125 131.898438 54.300781 C 126.917969 54.101562 121.863281 53.976562 116.820312 53.863281 C 106.730469 53.648438 96.632812 53.605469 86.945312 53.90625 C 84.984375 53.917969 82.722656 54.054688 80.484375 54.128906 C 79.347656 54.152344 78.28125 54.265625 77.160156 54.320312 C 76.054688 54.390625 74.921875 54.429688 73.816406 54.519531 C 69.367188 54.839844 64.851562 55.179688 60.417969 55.585938 C 51.523438 56.382812 42.847656 57.25 35.152344 58.214844 C 33.988281 58.355469 32.625 58.402344 31.1875 58.417969 C 29.761719 58.390625 28.265625 58.359375 26.816406 58.332031 C 25.363281 58.339844 24 58.253906 22.777344 58.363281 C 21.558594 58.453125 20.5 58.667969 19.726562 59.011719 C 20.480469 59.078125 21.246094 59.09375 22.015625 59.105469 L 24.316406 59.148438 C 23.164062 59.375 22.003906 59.476562 20.847656 59.507812 C 19.699219 59.496094 18.5625 59.386719 17.425781 59.269531 L 15.722656 59.082031 L 14.054688 58.804688 C 12.945312 58.617188 11.816406 58.515625 10.707031 58.40625 C 10.59375 59.058594 10.546875 59.386719 9.003906 59.417969 C 11.957031 60.074219 16.574219 60.167969 19.640625 60.671875 L 19.589844 61.664062 C 16.429688 61.820312 11.851562 60.734375 8.8125 60.394531 C 8.75 60.722656 8.625 61.375 8.5625 61.699219 C 8.503906 62.015625 6.945312 61.742188 5.414062 61.386719 C 6.171875 61.589844 7.34375 61.78125 8.5 62.027344 C 9.078125 62.140625 9.660156 62.257812 10.191406 62.363281 C 10.722656 62.46875 11.222656 62.503906 11.613281 62.5625 C 11.5625 62.890625 11.46875 63.546875 11.421875 63.875 C 11.398438 64.039062 10.984375 64.070312 10.378906 64.035156 C 9.773438 63.984375 8.980469 63.808594 8.183594 63.65625 C 8.066406 64.308594 6.308594 64.636719 7.871094 65.285156 C 8.683594 65.433594 9.496094 65.636719 10.316406 65.742188 L 12.773438 66.054688 C 9.472656 65.886719 6.941406 65.742188 5.144531 66.007812 C 3.359375 66.191406 2.339844 66.523438 2.203125 67.023438 C 3.980469 67.175781 3.738281 68.195312 5.527344 68.203125 C 4.578125 68.222656 3.621094 68.15625 2.71875 68.09375 L 9.289062 71.707031 C 14.40625 72.589844 19.480469 72.941406 24.449219 73.035156 C 27.339844 73.082031 30.207031 73.039062 33.046875 72.929688 C 33.414062 73.050781 33.820312 73.167969 34.214844 73.28125 C 35.324219 73.625 36.367188 73.816406 36.195312 74.125 C 35.386719 74.183594 32.429688 72.414062 31.988281 73.132812 C 31.898438 73.277344 33.296875 73.628906 33.996094 73.804688 C 29.632812 73.035156 27.03125 73.203125 30.816406 74.980469 C 29.433594 74.628906 27.5625 73.84375 26.070312 73.609375 C 26.074219 73.613281 26.078125 73.617188 26.078125 73.621094 C 26.804688 73.820312 28.019531 74.277344 28.695312 74.445312 C 27.871094 74.234375 27.039062 74.027344 26.210938 73.816406 C 26.3125 73.957031 26.433594 74.097656 26.5625 74.242188 C 27.160156 74.480469 27.765625 74.703125 28.414062 74.867188 C 27.863281 74.730469 27.3125 74.589844 26.761719 74.449219 C 27.109375 74.800781 27.527344 75.152344 27.996094 75.503906 C 29.851562 76.46875 31.601562 77.648438 32.679688 77.921875 C 41.351562 80.109375 50.191406 81.667969 58.945312 82.5 C 58.988281 82.207031 58.550781 81.867188 59.285156 81.804688 C 61.371094 81.757812 63.003906 82.636719 65.003906 82.734375 C 64.382812 82.855469 63.761719 82.976562 63.152344 83.113281 C 62.152344 83.347656 60.96875 83.484375 59.714844 83.632812 C 58.457031 83.800781 57.136719 83.976562 55.859375 84.148438 C 54.585938 84.3125 53.359375 84.605469 52.304688 84.949219 C 51.253906 85.296875 50.378906 85.726562 49.804688 86.277344 L 53.828125 85.390625 C 52.875 85.855469 51.898438 86.199219 50.90625 86.46875 C 50.410156 86.609375 49.910156 86.722656 49.410156 86.835938 C 48.910156 86.964844 48.40625 87.082031 47.902344 87.199219 L 44.867188 87.871094 C 43.855469 88.097656 42.871094 88.464844 41.902344 88.851562 C 42.007812 89.175781 42.082031 89.417969 41.96875 89.675781 L 42.566406 90 C 42.761719 89.933594 42.949219 89.867188 43.152344 89.792969 C 43.917969 89.519531 44.722656 89.214844 45.546875 88.992188 C 47.183594 88.515625 48.832031 88.046875 50.195312 87.894531 L 50.425781 88.859375 C 49.152344 89.332031 47.507812 89.71875 45.851562 90.066406 C 45.113281 90.210938 44.390625 90.414062 43.695312 90.621094 C 43.695312 90.621094 68.1875 97.140625 73.222656 96.636719 C 84.367188 95.578125 95.792969 95.246094 107.386719 95.097656 C 130.6875 94.828125 153.75 94.5 176.089844 97.089844 C 177.382812 97.058594 177.746094 96.859375 177.785156 96.574219 C 177.828125 96.289062 177.542969 95.914062 177.589844 95.585938 C 172.445312 95.015625 167.28125 94.777344 163.484375 93.6875 C 162.191406 93.542969 164.886719 92.507812 163.65625 91.699219 C 162.363281 91.5625 159.75 91.425781 158.445312 91.328125 C 157.214844 90.25 159.90625 89.433594 158.667969 88.347656 C 157.425781 87.269531 152.121094 87.585938 150.84375 86.832031 C 146.917969 85.90625 153.53125 86.015625 157.496094 86.277344 C 156.222656 85.527344 160.136719 86.453125 160.1875 85.789062 C 160.289062 84.46875 160.40625 83.140625 155.128906 81.792969 C 153.816406 81.375 155.214844 80.46875 155.257812 79.808594 C 153.703125 79.707031 152.136719 79.621094 150.5625 79.539062 C 150.574219 79.527344 150.589844 79.519531 150.597656 79.507812 C 150.976562 78.851562 151.648438 78.199219 152.96875 77.746094 C 153.628906 77.515625 154.453125 77.339844 155.480469 77.238281 C 155.996094 77.191406 156.5625 77.148438 157.183594 77.148438 C 157.804688 77.171875 158.480469 77.214844 159.21875 77.289062 C 161.507812 77.652344 164.785156 79.089844 165.644531 79.011719 C 167.007812 78.882812 163.015625 77.304688 164.371094 77.175781 C 162.292969 76.589844 160.21875 76.023438 158.144531 75.476562 C 156.070312 74.960938 153.988281 74.589844 151.910156 74.160156 L 148.796875 73.554688 L 145.683594 73.097656 C 143.609375 72.804688 141.53125 72.488281 139.460938 72.242188 C 131.171875 71.324219 122.898438 70.808594 114.519531 70.359375 C 113.078125 70.453125 109.617188 70.476562 105.0625 70.398438 C 100.53125 70.351562 94.925781 70.246094 89.234375 70.105469 C 83.597656 69.957031 77.867188 69.75 72.953125 69.453125 L 75.523438 69.253906 L 78.058594 69.117188 C 78.894531 69.082031 79.765625 69.007812 80.574219 69 L 83.019531 68.953125 L 84.242188 68.925781 C 84.648438 68.917969 85.121094 68.945312 85.554688 68.953125 L 88.21875 69.023438 C 102.425781 69.378906 116.636719 69.734375 130.792969 70.089844 C 144.996094 70.582031 159.144531 71.074219 173.195312 71.5625 C 176.421875 71.386719 174.847656 70.644531 174.878906 69.980469 C 168.464844 69.671875 162.027344 69.691406 157.242188 68.796875 " fill-opacity="1" fill-rule="nonzero"/></g></g></g></g></g></g><g clip-path="url(#44389900c9)"><g clip-path="url(#968707d57e)"><g clip-path="url(#a1ea3130d4)"><path fill="#ffd600" d="M 154.460938 130.382812 C 155.300781 130.519531 156.308594 130.675781 157.214844 130.820312 C 156.339844 130.78125 155.464844 130.746094 154.585938 130.714844 C 154.578125 130.613281 154.542969 130.503906 154.460938 130.382812 Z M 80.503906 133.898438 L 80.628906 133.613281 C 80.863281 133.65625 81.105469 133.710938 81.34375 133.757812 C 81.066406 133.804688 80.78125 133.847656 80.503906 133.898438 Z M 52.839844 125.089844 C 52.527344 124.996094 52.195312 124.917969 51.859375 124.84375 C 52.199219 124.828125 52.535156 124.8125 52.871094 124.792969 C 53.039062 124.875 53.066406 124.96875 52.839844 125.089844 Z M 165.824219 120.890625 C 164.328125 120.816406 167.378906 119.71875 165.914062 119.027344 C 164.417969 118.957031 161.425781 118.816406 159.929688 118.75 C 158.480469 117.75 161.515625 116.960938 160.0625 115.960938 C 158.613281 114.960938 152.597656 115.300781 151.128906 114.609375 C 146.664062 113.78125 154.167969 113.820312 158.65625 114.03125 C 157.191406 113.34375 161.652344 114.171875 161.683594 113.554688 C 161.742188 112.316406 161.800781 111.074219 155.859375 109.867188 C 154.375 109.484375 155.917969 108.625 155.945312 108.007812 C 151.453125 107.800781 146.863281 107.59375 142.230469 107.382812 C 137.585938 107.203125 132.878906 107.09375 128.179688 106.996094 C 118.773438 106.8125 109.367188 106.785156 100.339844 107.078125 C 98.511719 107.089844 96.402344 107.222656 94.320312 107.296875 C 93.261719 107.320312 92.261719 107.425781 91.21875 107.476562 C 90.1875 107.550781 89.132812 107.585938 88.101562 107.671875 C 83.957031 107.976562 79.75 108.300781 75.617188 108.6875 C 67.328125 109.441406 59.242188 110.265625 52.070312 111.175781 C 50.988281 111.308594 49.714844 111.355469 48.375 111.375 C 47.046875 111.351562 45.652344 111.324219 44.300781 111.296875 C 42.949219 111.308594 41.679688 111.226562 40.539062 111.332031 C 39.402344 111.421875 38.414062 111.621094 37.695312 111.941406 C 38.394531 112.003906 39.109375 112.019531 39.828125 112.027344 L 41.972656 112.066406 C 40.894531 112.277344 39.816406 112.375 38.738281 112.402344 C 37.667969 112.394531 36.609375 112.292969 35.546875 112.1875 L 33.960938 112.015625 L 32.40625 111.757812 C 31.375 111.585938 30.324219 111.492188 29.289062 111.390625 C 29.183594 112.003906 29.140625 112.308594 27.703125 112.339844 C 30.453125 112.949219 34.753906 113.027344 37.609375 113.492188 L 37.5625 114.421875 C 34.621094 114.574219 30.351562 113.5625 27.523438 113.253906 C 27.464844 113.554688 27.347656 114.164062 27.289062 114.46875 C 27.234375 114.765625 25.78125 114.511719 24.355469 114.179688 C 25.0625 114.371094 26.152344 114.550781 27.230469 114.773438 C 27.769531 114.882812 28.308594 114.988281 28.804688 115.089844 C 29.300781 115.183594 29.765625 115.21875 30.128906 115.273438 C 30.082031 115.578125 29.992188 116.191406 29.949219 116.496094 C 29.925781 116.652344 29.542969 116.683594 28.976562 116.652344 C 28.410156 116.605469 27.675781 116.4375 26.933594 116.296875 C 26.824219 116.90625 25.183594 117.214844 26.636719 117.820312 C 27.398438 117.957031 28.152344 118.144531 28.917969 118.242188 L 31.203125 118.53125 C 28.132812 118.382812 25.769531 118.246094 24.097656 118.5 C 22.433594 118.671875 21.480469 118.984375 21.355469 119.449219 C 23.007812 119.59375 22.785156 120.546875 24.449219 120.546875 C 23.5625 120.566406 22.671875 120.507812 21.832031 120.453125 L 27.953125 123.816406 C 32.71875 124.632812 37.445312 124.953125 42.074219 125.035156 C 44.769531 125.074219 47.4375 125.03125 50.085938 124.925781 C 50.429688 125.035156 50.808594 125.144531 51.175781 125.253906 C 52.207031 125.574219 53.179688 125.746094 53.019531 126.039062 C 52.265625 126.09375 49.511719 124.445312 49.097656 125.117188 C 49.015625 125.25 50.320312 125.574219 50.972656 125.742188 C 46.90625 125.027344 44.480469 125.1875 48.007812 126.84375 C 46.71875 126.519531 44.972656 125.785156 43.585938 125.570312 C 43.585938 125.574219 43.589844 125.578125 43.59375 125.582031 C 44.269531 125.765625 45.402344 126.1875 46.03125 126.34375 C 45.261719 126.152344 44.488281 125.957031 43.714844 125.761719 C 43.8125 125.894531 43.921875 126.023438 44.042969 126.160156 C 44.601562 126.382812 45.164062 126.589844 45.769531 126.742188 C 45.253906 126.613281 44.742188 126.484375 44.226562 126.355469 C 44.550781 126.679688 44.941406 127.007812 45.375 127.335938 C 47.105469 128.234375 48.734375 129.335938 49.738281 129.585938 C 57.816406 131.617188 66.050781 133.0625 74.207031 133.828125 C 74.246094 133.554688 73.839844 133.234375 74.527344 133.175781 C 76.46875 133.128906 77.988281 133.949219 79.851562 134.035156 C 79.273438 134.152344 78.691406 134.265625 78.125 134.394531 C 77.191406 134.613281 76.089844 134.746094 74.921875 134.882812 C 73.75 135.042969 72.519531 135.210938 71.328125 135.371094 C 70.140625 135.527344 68.996094 135.800781 68.015625 136.125 C 67.035156 136.453125 66.21875 136.851562 65.683594 137.371094 L 69.433594 136.535156 C 68.542969 136.96875 67.636719 137.292969 66.710938 137.546875 C 66.25 137.675781 65.78125 137.785156 65.3125 137.890625 C 64.847656 138.011719 64.378906 138.125 63.910156 138.230469 L 61.082031 138.867188 C 60.140625 139.078125 59.21875 139.421875 58.316406 139.785156 C 58.414062 140.085938 58.480469 140.3125 58.378906 140.550781 L 58.933594 140.855469 C 59.113281 140.792969 59.292969 140.730469 59.480469 140.664062 C 60.191406 140.402344 60.945312 140.121094 61.710938 139.910156 C 63.238281 139.464844 64.773438 139.023438 66.042969 138.878906 L 66.257812 139.78125 C 65.070312 140.222656 63.539062 140.585938 61.996094 140.914062 C 61.308594 141.050781 60.632812 141.238281 59.984375 141.4375 C 59.984375 141.4375 82.796875 147.488281 87.492188 147.011719 C 97.878906 146.007812 108.527344 145.679688 119.328125 145.523438 C 141.042969 145.242188 162.535156 144.898438 183.347656 147.289062 C 184.554688 147.257812 184.890625 147.074219 184.929688 146.804688 C 184.964844 146.535156 184.703125 146.1875 184.746094 145.882812 C 179.953125 145.355469 175.140625 145.140625 171.605469 144.125 C 170.402344 143.992188 172.914062 143.023438 171.769531 142.273438 C 170.5625 142.144531 168.128906 142.023438 166.914062 141.933594 C 165.765625 140.925781 168.277344 140.160156 167.125 139.148438 C 165.96875 138.144531 161.027344 138.445312 159.835938 137.742188 C 156.179688 136.886719 162.34375 136.976562 166.035156 137.214844 C 164.851562 136.515625 168.496094 137.375 168.542969 136.757812 C 168.640625 135.519531 168.75 134.28125 163.835938 133.03125 C 162.613281 132.640625 163.917969 131.792969 163.957031 131.175781 C 162.511719 131.085938 161.050781 131.003906 159.582031 130.929688 C 159.59375 130.921875 159.609375 130.914062 159.617188 130.902344 C 159.96875 130.289062 160.597656 129.679688 161.828125 129.253906 C 162.445312 129.039062 163.210938 128.871094 164.171875 128.773438 C 164.648438 128.730469 165.179688 128.6875 165.757812 128.691406 C 166.335938 128.707031 166.964844 128.75 167.65625 128.816406 C 169.785156 129.152344 172.835938 130.492188 173.640625 130.414062 C 174.90625 130.296875 171.191406 128.828125 172.453125 128.703125 C 170.519531 128.160156 168.585938 127.632812 166.65625 127.125 C 164.722656 126.648438 162.785156 126.300781 160.847656 125.90625 L 157.945312 125.34375 L 155.046875 124.921875 C 153.113281 124.652344 151.179688 124.359375 149.25 124.128906 C 141.523438 123.285156 133.820312 122.816406 126.011719 122.40625 C 124.667969 122.496094 121.441406 122.523438 117.199219 122.457031 C 112.976562 122.421875 107.75 122.332031 102.449219 122.207031 C 97.195312 122.078125 91.859375 121.890625 87.28125 121.621094 L 89.671875 121.429688 L 92.035156 121.300781 C 92.816406 121.265625 93.628906 121.195312 94.378906 121.183594 L 97.800781 121.113281 C 98.179688 121.101562 98.617188 121.128906 99.023438 121.132812 L 101.503906 121.199219 C 114.742188 121.511719 127.984375 121.820312 141.175781 122.132812 C 154.410156 122.574219 167.59375 123.011719 180.683594 123.449219 C 183.691406 123.277344 182.226562 122.589844 182.257812 121.96875 C 176.277344 121.6875 170.28125 121.71875 165.824219 120.890625 " fill-opacity="1" fill-rule="nonzero"/></g></g></g><g fill="#ec00ff" fill-opacity="0.302"><g transform="translate(64.947671, 127.683247)"><g><path d="M 36.0625 -41.796875 C 36.425781 -41.796875 36.753906 -41.675781 37.046875 -41.4375 C 37.335938 -41.207031 37.484375 -40.765625 37.484375 -40.109375 L 37.484375 -2.15625 C 37.484375 -0.71875 36.804688 0 35.453125 0 L 25.34375 0 C 24.707031 0 24.179688 -0.125 23.765625 -0.375 C 23.347656 -0.625 22.972656 -0.914062 22.640625 -1.25 L 7.75 -16.828125 C 7.914062 -14.304688 8.085938 -11.984375 8.265625 -9.859375 C 8.328125 -8.953125 8.394531 -8.050781 8.46875 -7.15625 C 8.550781 -6.269531 8.617188 -5.4375 8.671875 -4.65625 C 8.734375 -3.882812 8.785156 -3.207031 8.828125 -2.625 C 8.878906 -2.039062 8.914062 -1.625 8.9375 -1.375 C 8.976562 -1.039062 8.925781 -0.726562 8.78125 -0.4375 C 8.632812 -0.144531 8.296875 0 7.765625 0 L 4.109375 0 C 3.753906 0 3.425781 -0.109375 3.125 -0.328125 C 2.820312 -0.554688 2.671875 -1 2.671875 -1.65625 L 2.671875 -39.640625 C 2.671875 -41.078125 3.46875 -41.796875 5.0625 -41.796875 L 14.90625 -41.796875 C 15.644531 -41.796875 16.257812 -41.640625 16.75 -41.328125 C 17.25 -41.015625 17.75 -40.609375 18.25 -40.109375 L 32.421875 -26.046875 C 32.234375 -28.359375 32.0625 -30.492188 31.90625 -32.453125 C 31.820312 -33.285156 31.742188 -34.117188 31.671875 -34.953125 C 31.609375 -35.785156 31.546875 -36.566406 31.484375 -37.296875 C 31.429688 -38.023438 31.378906 -38.660156 31.328125 -39.203125 C 31.285156 -39.742188 31.253906 -40.148438 31.234375 -40.421875 C 31.191406 -40.734375 31.253906 -41.039062 31.421875 -41.34375 C 31.585938 -41.644531 31.96875 -41.796875 32.5625 -41.796875 Z M 36.0625 -41.796875 "/></g></g></g><g fill="#ec00ff" fill-opacity="0.302"><g transform="translate(105.115911, 127.683247)"><g><path d="M 24.328125 -4.359375 C 24.328125 -3.921875 24.273438 -3.445312 24.171875 -2.9375 C 24.066406 -2.4375 23.851562 -1.96875 23.53125 -1.53125 C 23.207031 -1.09375 22.753906 -0.726562 22.171875 -0.4375 C 21.597656 -0.144531 20.84375 0 19.90625 0 L 7.109375 0 C 6.191406 0 5.445312 -0.0859375 4.875 -0.265625 C 4.300781 -0.441406 3.847656 -0.691406 3.515625 -1.015625 C 3.191406 -1.347656 2.96875 -1.765625 2.84375 -2.265625 C 2.726562 -2.773438 2.671875 -3.367188 2.671875 -4.046875 L 2.671875 -36.734375 C 2.671875 -37.835938 2.796875 -38.722656 3.046875 -39.390625 C 3.304688 -40.066406 3.664062 -40.582031 4.125 -40.9375 C 4.59375 -41.289062 5.148438 -41.519531 5.796875 -41.625 C 6.453125 -41.738281 7.175781 -41.796875 7.96875 -41.796875 L 35.015625 -41.796875 C 35.941406 -41.796875 36.40625 -41.3125 36.40625 -40.34375 L 36.40625 -37.65625 C 36.40625 -37.269531 36.289062 -37.019531 36.0625 -36.90625 C 35.832031 -36.789062 35.550781 -36.734375 35.21875 -36.734375 C 35.019531 -36.734375 34.71875 -36.757812 34.3125 -36.8125 C 33.90625 -36.875 33.429688 -36.945312 32.890625 -37.03125 C 32.347656 -37.125 31.757812 -37.234375 31.125 -37.359375 C 30.5 -37.484375 29.863281 -37.601562 29.21875 -37.71875 C 27.726562 -38.007812 26.097656 -38.347656 24.328125 -38.734375 L 24.328125 -31.34375 L 35.15625 -31.34375 C 35.5625 -31.34375 35.765625 -31.140625 35.765625 -30.734375 L 35.765625 -27.828125 C 35.765625 -27.398438 35.5625 -27.1875 35.15625 -27.1875 L 24.328125 -27.1875 Z M 24.328125 -4.359375 "/></g></g></g><g fill="#ec00ff" fill-opacity="0.302"><g transform="translate(142.140549, 127.683247)"><g><path d="M 34.984375 -15.046875 C 34.984375 -12.835938 34.769531 -10.898438 34.34375 -9.234375 C 33.914062 -7.578125 33.320312 -6.144531 32.5625 -4.9375 C 31.8125 -3.738281 30.921875 -2.75 29.890625 -1.96875 C 28.859375 -1.195312 27.738281 -0.578125 26.53125 -0.109375 C 25.320312 0.347656 24.039062 0.671875 22.6875 0.859375 C 21.34375 1.046875 19.976562 1.140625 18.59375 1.140625 C 17.28125 1.140625 15.96875 1.054688 14.65625 0.890625 C 13.34375 0.722656 12.097656 0.425781 10.921875 0 C 9.753906 -0.425781 8.664062 -1.015625 7.65625 -1.765625 C 6.644531 -2.523438 5.769531 -3.503906 5.03125 -4.703125 C 4.289062 -5.910156 3.710938 -7.359375 3.296875 -9.046875 C 2.878906 -10.734375 2.671875 -12.734375 2.671875 -15.046875 L 2.671875 -37.71875 C 2.671875 -38.394531 2.726562 -38.984375 2.84375 -39.484375 C 2.96875 -39.992188 3.191406 -40.414062 3.515625 -40.75 C 3.847656 -41.09375 4.304688 -41.351562 4.890625 -41.53125 C 5.472656 -41.707031 6.226562 -41.796875 7.15625 -41.796875 L 20.140625 -41.796875 C 21.265625 -41.796875 22.125 -41.628906 22.71875 -41.296875 C 23.3125 -40.972656 23.726562 -40.5625 23.96875 -40.0625 C 24.207031 -39.570312 24.335938 -39.046875 24.359375 -38.484375 C 24.378906 -37.929688 24.390625 -37.425781 24.390625 -36.96875 L 24.390625 -7.078125 C 24.390625 -6.785156 24.472656 -6.578125 24.640625 -6.453125 C 24.804688 -6.328125 24.96875 -6.265625 25.125 -6.265625 C 25.820312 -6.265625 26.429688 -6.453125 26.953125 -6.828125 C 27.472656 -7.203125 27.90625 -7.71875 28.25 -8.375 C 28.601562 -9.039062 28.875 -9.816406 29.0625 -10.703125 C 29.25 -11.597656 29.34375 -12.5625 29.34375 -13.59375 L 29.34375 -40.421875 C 29.34375 -40.753906 29.414062 -41.066406 29.5625 -41.359375 C 29.707031 -41.648438 30.03125 -41.796875 30.53125 -41.796875 L 33.5625 -41.796875 C 33.738281 -41.796875 33.910156 -41.785156 34.078125 -41.765625 C 34.253906 -41.742188 34.410156 -41.6875 34.546875 -41.59375 C 34.679688 -41.507812 34.785156 -41.375 34.859375 -41.1875 C 34.941406 -41.007812 34.984375 -40.753906 34.984375 -40.421875 Z M 34.984375 -15.046875 "/></g></g></g><g fill="#ec00ff" fill-opacity="0.502"><g transform="translate(62.567007, 125.889287)"><g><path d="M 36.0625 -41.796875 C 36.425781 -41.796875 36.753906 -41.675781 37.046875 -41.4375 C 37.335938 -41.207031 37.484375 -40.765625 37.484375 -40.109375 L 37.484375 -2.15625 C 37.484375 -0.71875 36.804688 0 35.453125 0 L 25.34375 0 C 24.707031 0 24.179688 -0.125 23.765625 -0.375 C 23.347656 -0.625 22.972656 -0.914062 22.640625 -1.25 L 7.75 -16.828125 C 7.914062 -14.304688 8.085938 -11.984375 8.265625 -9.859375 C 8.328125 -8.953125 8.394531 -8.050781 8.46875 -7.15625 C 8.550781 -6.269531 8.617188 -5.4375 8.671875 -4.65625 C 8.734375 -3.882812 8.785156 -3.207031 8.828125 -2.625 C 8.878906 -2.039062 8.914062 -1.625 8.9375 -1.375 C 8.976562 -1.039062 8.925781 -0.726562 8.78125 -0.4375 C 8.632812 -0.144531 8.296875 0 7.765625 0 L 4.109375 0 C 3.753906 0 3.425781 -0.109375 3.125 -0.328125 C 2.820312 -0.554688 2.671875 -1 2.671875 -1.65625 L 2.671875 -39.640625 C 2.671875 -41.078125 3.46875 -41.796875 5.0625 -41.796875 L 14.90625 -41.796875 C 15.644531 -41.796875 16.257812 -41.640625 16.75 -41.328125 C 17.25 -41.015625 17.75 -40.609375 18.25 -40.109375 L 32.421875 -26.046875 C 32.234375 -28.359375 32.0625 -30.492188 31.90625 -32.453125 C 31.820312 -33.285156 31.742188 -34.117188 31.671875 -34.953125 C 31.609375 -35.785156 31.546875 -36.566406 31.484375 -37.296875 C 31.429688 -38.023438 31.378906 -38.660156 31.328125 -39.203125 C 31.285156 -39.742188 31.253906 -40.148438 31.234375 -40.421875 C 31.191406 -40.734375 31.253906 -41.039062 31.421875 -41.34375 C 31.585938 -41.644531 31.96875 -41.796875 32.5625 -41.796875 Z M 36.0625 -41.796875 "/></g></g></g><g fill="#ec00ff" fill-opacity="0.502"><g transform="translate(102.735247, 125.889287)"><g><path d="M 24.328125 -4.359375 C 24.328125 -3.921875 24.273438 -3.445312 24.171875 -2.9375 C 24.066406 -2.4375 23.851562 -1.96875 23.53125 -1.53125 C 23.207031 -1.09375 22.753906 -0.726562 22.171875 -0.4375 C 21.597656 -0.144531 20.84375 0 19.90625 0 L 7.109375 0 C 6.191406 0 5.445312 -0.0859375 4.875 -0.265625 C 4.300781 -0.441406 3.847656 -0.691406 3.515625 -1.015625 C 3.191406 -1.347656 2.96875 -1.765625 2.84375 -2.265625 C 2.726562 -2.773438 2.671875 -3.367188 2.671875 -4.046875 L 2.671875 -36.734375 C 2.671875 -37.835938 2.796875 -38.722656 3.046875 -39.390625 C 3.304688 -40.066406 3.664062 -40.582031 4.125 -40.9375 C 4.59375 -41.289062 5.148438 -41.519531 5.796875 -41.625 C 6.453125 -41.738281 7.175781 -41.796875 7.96875 -41.796875 L 35.015625 -41.796875 C 35.941406 -41.796875 36.40625 -41.3125 36.40625 -40.34375 L 36.40625 -37.65625 C 36.40625 -37.269531 36.289062 -37.019531 36.0625 -36.90625 C 35.832031 -36.789062 35.550781 -36.734375 35.21875 -36.734375 C 35.019531 -36.734375 34.71875 -36.757812 34.3125 -36.8125 C 33.90625 -36.875 33.429688 -36.945312 32.890625 -37.03125 C 32.347656 -37.125 31.757812 -37.234375 31.125 -37.359375 C 30.5 -37.484375 29.863281 -37.601562 29.21875 -37.71875 C 27.726562 -38.007812 26.097656 -38.347656 24.328125 -38.734375 L 24.328125 -31.34375 L 35.15625 -31.34375 C 35.5625 -31.34375 35.765625 -31.140625 35.765625 -30.734375 L 35.765625 -27.828125 C 35.765625 -27.398438 35.5625 -27.1875 35.15625 -27.1875 L 24.328125 -27.1875 Z M 24.328125 -4.359375 "/></g></g></g><g fill="#ec00ff" fill-opacity="0.502"><g transform="translate(139.759885, 125.889287)"><g><path d="M 34.984375 -15.046875 C 34.984375 -12.835938 34.769531 -10.898438 34.34375 -9.234375 C 33.914062 -7.578125 33.320312 -6.144531 32.5625 -4.9375 C 31.8125 -3.738281 30.921875 -2.75 29.890625 -1.96875 C 28.859375 -1.195312 27.738281 -0.578125 26.53125 -0.109375 C 25.320312 0.347656 24.039062 0.671875 22.6875 0.859375 C 21.34375 1.046875 19.976562 1.140625 18.59375 1.140625 C 17.28125 1.140625 15.96875 1.054688 14.65625 0.890625 C 13.34375 0.722656 12.097656 0.425781 10.921875 0 C 9.753906 -0.425781 8.664062 -1.015625 7.65625 -1.765625 C 6.644531 -2.523438 5.769531 -3.503906 5.03125 -4.703125 C 4.289062 -5.910156 3.710938 -7.359375 3.296875 -9.046875 C 2.878906 -10.734375 2.671875 -12.734375 2.671875 -15.046875 L 2.671875 -37.71875 C 2.671875 -38.394531 2.726562 -38.984375 2.84375 -39.484375 C 2.96875 -39.992188 3.191406 -40.414062 3.515625 -40.75 C 3.847656 -41.09375 4.304688 -41.351562 4.890625 -41.53125 C 5.472656 -41.707031 6.226562 -41.796875 7.15625 -41.796875 L 20.140625 -41.796875 C 21.265625 -41.796875 22.125 -41.628906 22.71875 -41.296875 C 23.3125 -40.972656 23.726562 -40.5625 23.96875 -40.0625 C 24.207031 -39.570312 24.335938 -39.046875 24.359375 -38.484375 C 24.378906 -37.929688 24.390625 -37.425781 24.390625 -36.96875 L 24.390625 -7.078125 C 24.390625 -6.785156 24.472656 -6.578125 24.640625 -6.453125 C 24.804688 -6.328125 24.96875 -6.265625 25.125 -6.265625 C 25.820312 -6.265625 26.429688 -6.453125 26.953125 -6.828125 C 27.472656 -7.203125 27.90625 -7.71875 28.25 -8.375 C 28.601562 -9.039062 28.875 -9.816406 29.0625 -10.703125 C 29.25 -11.597656 29.34375 -12.5625 29.34375 -13.59375 L 29.34375 -40.421875 C 29.34375 -40.753906 29.414062 -41.066406 29.5625 -41.359375 C 29.707031 -41.648438 30.03125 -41.796875 30.53125 -41.796875 L 33.5625 -41.796875 C 33.738281 -41.796875 33.910156 -41.785156 34.078125 -41.765625 C 34.253906 -41.742188 34.410156 -41.6875 34.546875 -41.59375 C 34.679688 -41.507812 34.785156 -41.375 34.859375 -41.1875 C 34.941406 -41.007812 34.984375 -40.753906 34.984375 -40.421875 Z M 34.984375 -15.046875 "/></g></g></g><g fill="#545454" fill-opacity="1"><g transform="translate(60.186343, 124.095328)"><g><path d="M 36.0625 -41.796875 C 36.425781 -41.796875 36.753906 -41.675781 37.046875 -41.4375 C 37.335938 -41.207031 37.484375 -40.765625 37.484375 -40.109375 L 37.484375 -2.15625 C 37.484375 -0.71875 36.804688 0 35.453125 0 L 25.34375 0 C 24.707031 0 24.179688 -0.125 23.765625 -0.375 C 23.347656 -0.625 22.972656 -0.914062 22.640625 -1.25 L 7.75 -16.828125 C 7.914062 -14.304688 8.085938 -11.984375 8.265625 -9.859375 C 8.328125 -8.953125 8.394531 -8.050781 8.46875 -7.15625 C 8.550781 -6.269531 8.617188 -5.4375 8.671875 -4.65625 C 8.734375 -3.882812 8.785156 -3.207031 8.828125 -2.625 C 8.878906 -2.039062 8.914062 -1.625 8.9375 -1.375 C 8.976562 -1.039062 8.925781 -0.726562 8.78125 -0.4375 C 8.632812 -0.144531 8.296875 0 7.765625 0 L 4.109375 0 C 3.753906 0 3.425781 -0.109375 3.125 -0.328125 C 2.820312 -0.554688 2.671875 -1 2.671875 -1.65625 L 2.671875 -39.640625 C 2.671875 -41.078125 3.46875 -41.796875 5.0625 -41.796875 L 14.90625 -41.796875 C 15.644531 -41.796875 16.257812 -41.640625 16.75 -41.328125 C 17.25 -41.015625 17.75 -40.609375 18.25 -40.109375 L 32.421875 -26.046875 C 32.234375 -28.359375 32.0625 -30.492188 31.90625 -32.453125 C 31.820312 -33.285156 31.742188 -34.117188 31.671875 -34.953125 C 31.609375 -35.785156 31.546875 -36.566406 31.484375 -37.296875 C 31.429688 -38.023438 31.378906 -38.660156 31.328125 -39.203125 C 31.285156 -39.742188 31.253906 -40.148438 31.234375 -40.421875 C 31.191406 -40.734375 31.253906 -41.039062 31.421875 -41.34375 C 31.585938 -41.644531 31.96875 -41.796875 32.5625 -41.796875 Z M 36.0625 -41.796875 "/></g></g></g><g fill="#545454" fill-opacity="1"><g transform="translate(100.354582, 124.095328)"><g><path d="M 24.328125 -4.359375 C 24.328125 -3.921875 24.273438 -3.445312 24.171875 -2.9375 C 24.066406 -2.4375 23.851562 -1.96875 23.53125 -1.53125 C 23.207031 -1.09375 22.753906 -0.726562 22.171875 -0.4375 C 21.597656 -0.144531 20.84375 0 19.90625 0 L 7.109375 0 C 6.191406 0 5.445312 -0.0859375 4.875 -0.265625 C 4.300781 -0.441406 3.847656 -0.691406 3.515625 -1.015625 C 3.191406 -1.347656 2.96875 -1.765625 2.84375 -2.265625 C 2.726562 -2.773438 2.671875 -3.367188 2.671875 -4.046875 L 2.671875 -36.734375 C 2.671875 -37.835938 2.796875 -38.722656 3.046875 -39.390625 C 3.304688 -40.066406 3.664062 -40.582031 4.125 -40.9375 C 4.59375 -41.289062 5.148438 -41.519531 5.796875 -41.625 C 6.453125 -41.738281 7.175781 -41.796875 7.96875 -41.796875 L 35.015625 -41.796875 C 35.941406 -41.796875 36.40625 -41.3125 36.40625 -40.34375 L 36.40625 -37.65625 C 36.40625 -37.269531 36.289062 -37.019531 36.0625 -36.90625 C 35.832031 -36.789062 35.550781 -36.734375 35.21875 -36.734375 C 35.019531 -36.734375 34.71875 -36.757812 34.3125 -36.8125 C 33.90625 -36.875 33.429688 -36.945312 32.890625 -37.03125 C 32.347656 -37.125 31.757812 -37.234375 31.125 -37.359375 C 30.5 -37.484375 29.863281 -37.601562 29.21875 -37.71875 C 27.726562 -38.007812 26.097656 -38.347656 24.328125 -38.734375 L 24.328125 -31.34375 L 35.15625 -31.34375 C 35.5625 -31.34375 35.765625 -31.140625 35.765625 -30.734375 L 35.765625 -27.828125 C 35.765625 -27.398438 35.5625 -27.1875 35.15625 -27.1875 L 24.328125 -27.1875 Z M 24.328125 -4.359375 "/></g></g></g><g fill="#545454" fill-opacity="1"><g transform="translate(137.379221, 124.095328)"><g><path d="M 34.984375 -15.046875 C 34.984375 -12.835938 34.769531 -10.898438 34.34375 -9.234375 C 33.914062 -7.578125 33.320312 -6.144531 32.5625 -4.9375 C 31.8125 -3.738281 30.921875 -2.75 29.890625 -1.96875 C 28.859375 -1.195312 27.738281 -0.578125 26.53125 -0.109375 C 25.320312 0.347656 24.039062 0.671875 22.6875 0.859375 C 21.34375 1.046875 19.976562 1.140625 18.59375 1.140625 C 17.28125 1.140625 15.96875 1.054688 14.65625 0.890625 C 13.34375 0.722656 12.097656 0.425781 10.921875 0 C 9.753906 -0.425781 8.664062 -1.015625 7.65625 -1.765625 C 6.644531 -2.523438 5.769531 -3.503906 5.03125 -4.703125 C 4.289062 -5.910156 3.710938 -7.359375 3.296875 -9.046875 C 2.878906 -10.734375 2.671875 -12.734375 2.671875 -15.046875 L 2.671875 -37.71875 C 2.671875 -38.394531 2.726562 -38.984375 2.84375 -39.484375 C 2.96875 -39.992188 3.191406 -40.414062 3.515625 -40.75 C 3.847656 -41.09375 4.304688 -41.351562 4.890625 -41.53125 C 5.472656 -41.707031 6.226562 -41.796875 7.15625 -41.796875 L 20.140625 -41.796875 C 21.265625 -41.796875 22.125 -41.628906 22.71875 -41.296875 C 23.3125 -40.972656 23.726562 -40.5625 23.96875 -40.0625 C 24.207031 -39.570312 24.335938 -39.046875 24.359375 -38.484375 C 24.378906 -37.929688 24.390625 -37.425781 24.390625 -36.96875 L 24.390625 -7.078125 C 24.390625 -6.785156 24.472656 -6.578125 24.640625 -6.453125 C 24.804688 -6.328125 24.96875 -6.265625 25.125 -6.265625 C 25.820312 -6.265625 26.429688 -6.453125 26.953125 -6.828125 C 27.472656 -7.203125 27.90625 -7.71875 28.25 -8.375 C 28.601562 -9.039062 28.875 -9.816406 29.0625 -10.703125 C 29.25 -11.597656 29.34375 -12.5625 29.34375 -13.59375 L 29.34375 -40.421875 C 29.34375 -40.753906 29.414062 -41.066406 29.5625 -41.359375 C 29.707031 -41.648438 30.03125 -41.796875 30.53125 -41.796875 L 33.5625 -41.796875 C 33.738281 -41.796875 33.910156 -41.785156 34.078125 -41.765625 C 34.253906 -41.742188 34.410156 -41.6875 34.546875 -41.59375 C 34.679688 -41.507812 34.785156 -41.375 34.859375 -41.1875 C 34.941406 -41.007812 34.984375 -40.753906 34.984375 -40.421875 Z M 34.984375 -15.046875 "/></g></g></g></svg>